<svg xmlns="http://www.w3.org/2000/svg" xmlns:xlink="http://www.w3.org/1999/xlink" xmlns:inkscape="http://www.inkscape.org/namespaces/inkscape" version="1.1" width="455" height="583" viewBox="0 0 455 583">
<defs>
<path id="font_1_1" d="M.33399964 .30233766C.33999635 .32835389 .36299134 .42037965 .43299867 .42037965 .43798829 .42037965 .46199037 .42037965 .48298646 .40734864 .45498658 .402359 .43499757 .37734986 .43499757 .35334779 .43499757 .33735658 .44599916 .31835938 .47299195 .31835938 .49499513 .31835938 .5269928 .3363495 .5269928 .37635804 .5269928 .42837525 .46798707 .4423828 .43399049 .4423828 .37599183 .4423828 .34098817 .38935853 .32899476 .36634828 .3039856 .43237306 .25 .4423828 .22099304 .4423828 .116989139 .4423828 .05999756 .3133545 .05999756 .28834535 .05999756 .27833558 .069992069 .27833558 .07199097 .27833558 .07998657 .27833558 .08299255 .28033448 .084991458 .28933717 .11898804 .39535523 .18499756 .42037965 .21899414 .42037965 .23799134 .42037965 .272995 .4113617 .272995 .35334779 .272995 .32235719 .2559967 .25532533 .21899414 .11528015 .20298767 .053268434 .16799927 .011245728 .12399292 .011245728 .117996219 .011245728 .09498596 .011245728 .07398987 .024276734 .09899902 .029266358 .12098694 .05027771 .12098694 .07827759 .12098694 .105270389 .09899902 .11328125 .083999637 .11328125 .053985597 .11328125 .0289917 .08728027 .0289917 .055267335 .0289917 .009246826 .07899475-.0107421879 .12298584-.0107421879 .18899536-.0107421879 .22499085 .059280397 .22799683 .0652771 .23999024 .028274537 .27598573-.0107421879 .33599855-.0107421879 .43899537-.0107421879 .49598695 .118270877 .49598695 .14328003 .49598695 .1532898 .4869995 .1532898 .48399354 .1532898 .47499085 .1532898 .47299195 .14929199 .47099305 .14228821 .43798829 .03527832 .36999513 .011245728 .33799745 .011245728 .29899598 .011245728 .2829895 .043273927 .2829895 .07727051 .2829895 .09927368 .2889862 .121276859 .2999878 .16529846L.33399964 .30233766Z"/>
<path id="font_1_2" d="M.48599244 .38136292C.48999024 .39537049 .48999024 .39736939 .48999024 .40437318 .48999024 .42237855 .47599793 .43138124 .46099855 .43138124 .45098878 .43138124 .43499757 .42536927 .42599488 .41036988 .42399598 .405365 .41600038 .37435914 .4119873 .35635377 .40499879 .33035279 .397995 .30334474 .3919983 .27633668L.34700013 .09628296C.34298707 .08126831 .2999878 .011245728 .23399353 .011245728 .18299866 .011245728 .17199707 .055267335 .17199707 .0922699 .17199707 .1382904 .18899536 .20030213 .22299195 .28833009 .23899842 .3293457 .24299622 .3403473 .24299622 .36035157 .24299622 .405365 .21099854 .4423828 .16099549 .4423828 .06599426 .4423828 .0289917 .29733277 .0289917 .28833009 .0289917 .27833558 .038986207 .27833558 .040985109 .27833558 .050994874 .27833558 .051986696 .28033448 .056991579 .29634095 .083999637 .3903656 .12399292 .42037965 .1579895 .42037965 .1659851 .42037965 .18299866 .42037965 .18299866 .3883667 .18299866 .36335755 .17298889 .3373413 .1659851 .31834413 .12599182 .21231079 .10798645 .1552887 .10798645 .10827637 .10798645 .019256592 .17098999-.0107421879 .22999573-.0107421879 .2689972-.0107421879 .30299378 .0062561037 .33099366 .03425598 .31799317-.017745972 .30599977-.06674194 .2659912-.11973572 .23999024-.15385437 .20199585-.18309021 .1559906-.18309021 .14199829-.18309021 .09700012-.18005371 .07998657-.14074707 .09599304-.14074707 .10899353-.14074707 .12298584-.1287384 .1329956-.11973572 .14299011-.10673523 .14299011-.08773804 .14299011-.056747438 .115997318-.052734376 .10598755-.052734376 .08299255-.052734376 .049987794-.068740848 .049987794-.11773682 .049987794-.16796875 .09399414-.20507813 .1559906-.20507813 .25898744-.20507813 .3619995-.11373901 .3899994-.00074768069L.48599244 .38136292Z"/>
<path id="font_2_1" d="M.6749878 .22944641C.69299319 .22944641 .71199038 .22944641 .71199038 .25144959 .71199038 .27246095 .69200137 .27246095 .6749878 .27246095H.12298584C.10598755 .27246095 .085998538 .27246095 .085998538 .25144959 .085998538 .22944641 .10499573 .22944641 .12298584 .22944641H.6749878Z"/>
<path id="font_3_2" d="M.3039856 .6392822C.3039856 .6642761 .30299378 .666275 .27799989 .666275 .21598816 .60227969 .12399292 .60227969 .09298706 .60227969V.57128909C.11199951 .57128909 .17298889 .57128909 .22698975 .5972748V.08001709C.22698975 .042999269 .22399903 .0309906 .1309967 .0309906H.09899902V0C.1349945 .0029907227 .22399903 .0029907227 .2649994 .0029907227 .30599977 .0029907227 .3959961 .0029907227 .43199159 0V.0309906H.3999939C.30699159 .0309906 .3039856 .042999269 .3039856 .08001709V.6392822Z"/>
<path id="font_3_1" d="M.47299195 .31976319C.47299195 .38682557 .46998597 .47288514 .43499757 .5479431 .3909912 .64201357 .31498719 .6660156 .25698854 .6660156 .19699097 .6660156 .12098694 .64201357 .07699585 .5459442 .04499817 .47688294 .039993287 .39582826 .039993287 .31976319 .039993287 .25471498 .041992189 .15765381 .084991458 .07858276 .13198853-.0064697267 .20999146-.022460938 .2559967-.022460938 .32099916-.022460938 .394989 .0055389406 .43699647 .097595218 .46699525 .1646576 .47299195 .23971558 .47299195 .31976319M.25698854 .002532959C.22698975 .002532959 .15499878 .016540528 .13598633 .12962342 .12599182 .18867493 .12599182 .2747345 .12599182 .33177186 .12599182 .39982606 .12599182 .47888185 .13798523 .53393557 .1579895 .6230011 .22200012 .64100649 .2559967 .64100649 .2939911 .64100649 .35699464 .62098696 .37599183 .5279236 .3869934 .47288514 .3869934 .39482118 .3869934 .33177186 .3869934 .2697296 .3869934 .18566895 .3769989 .12661743 .35598756 .012542725 .28199769 .002532959 .25698854 .002532959Z"/>
<path id="font_3_6" d="M.17199707 .45387269C.14199829 .47288514 .11898804 .4998932 .11898804 .53692629 .11898804 .6019745 .18899536 .64100649 .25498963 .64100649 .33198548 .64100649 .3939972 .58695986 .3939972 .51690676 .3939972 .44685365 .33399964 .40083314 .2939911 .37780763L.17199707 .45387269M.31900025 .36180116C.36898805 .38581849 .44198609 .43585206 .44198609 .51690676 .44198609 .6109772 .34799195 .6660156 .2579956 .6660156 .15299988 .6660156 .070999149 .5909729 .070999149 .49890138 .070999149 .46087647 .084991458 .42485047 .10899353 .39582826 .12599182 .3768158 .13198853 .37280274 .18998719 .3357849 .101989749 .29374696 .042999269 .23269654 .042999269 .15063477 .042999269 .044555665 .147995-.022460938 .2559967-.022460938 .37199403-.022460938 .46998597 .059570314 .46998597 .16764832 .46998597 .26472474 .3959961 .3127594 .37098695 .32876588 .3600006 .33677674 .33099366 .35479737 .31900025 .36180116M.21699524 .31877137 .34298707 .2407074C.3659973 .22569275 .41600038 .19366455 .41600038 .1326294 .41600038 .05357361 .33599855 .0055389406 .25698854 .0055389406 .16999817 .0055389406 .09700012 .06758118 .09700012 .15063477 .09700012 .22268677 .14698792 .28274537 .21699524 .31877137Z"/>
<path id="font_3_5" d="M.13398743 .33073426C.13398743 .43276979 .14498902 .4897766 .17199707 .54177859 .19198609 .58277896 .24099732 .64100649 .31498719 .64100649 .33499146 .64100649 .3809967 .63697817 .4039917 .6007843 .36698915 .6007843 .35099793 .5817871 .35099793 .55477908 .35099793 .5287781 .36898805 .50878909 .39698792 .50878909 .4249878 .50878909 .44400025 .5267792 .44400025 .55677798 .44400025 .612854 .4039917 .6660156 .31298829 .6660156 .18399048 .6660156 .042999269 .53878787 .042999269 .3157196 .042999269 .044555665 .16499329-.022460938 .25898744-.022460938 .36999513-.022460938 .46998597 .0705719 .46998597 .20265198 .46998597 .32972718 .37799073 .42578126 .2649994 .42578126 .20498657 .42578126 .1619873 .39076234 .13398743 .33073426M.2579956 .0055389406C.20098877 .0055389406 .16799927 .05256653 .1559906 .08157349 .13699341 .12660218 .13598633 .20965576 .13598633 .22566223 .13598633 .29270936 .16699219 .4007721 .2630005 .4007721 .2789917 .4007721 .32798768 .4007721 .3600006 .33872987 .3789978 .30070497 .3789978 .25167848 .3789978 .20365906 .3789978 .15562439 .3789978 .1065979 .3600006 .06956482 .32899476 .012542725 .2849884 .0055389406 .2579956 .0055389406Z"/>
<path id="font_3_4" d="M.0289917 .19602967V.16503906H.3019867V.07901001C.3019867 .041992189 .29899598 .0309906 .22399903 .0309906H.20199585V0C.2649994 .0029907227 .33499146 .0029907227 .34199525 .0029907227 .34700013 .0029907227 .4189911 .0029907227 .48199464 0V.0309906H.45999146C.3849945 .0309906 .38198854 .041992189 .38198854 .07901001V.16503906H.48399354V.19602967H.38198854V.64974978C.38198854 .669754 .38198854 .6767578 .36299134 .6767578 .35099793 .6767578 .34999085 .67575076 .34098817 .66174319L.0289917 .19602967M.06098938 .19602967 .30799867 .56581118V.19602967H.06098938Z"/>
<path id="font_3_3" d="M.46199037 .17704773H.43399049C.43199159 .16404724 .42399598 .10501099 .41099549 .08900452 .40499879 .07998657 .33599855 .07998657 .31599427 .07998657H.13798523L.23699951 .17404175C.40098573 .3161316 .46199037 .36915589 .46199037 .4711914 .46199037 .5860901 .36698915 .6660156 .24398804 .6660156 .1289978 .6660156 .050994874 .575119 .050994874 .4841919 .050994874 .43418885 .09399414 .42919923 .102996829 .42919923 .125 .42919923 .15499878 .44519044 .15499878 .48120118 .15499878 .51119998 .13398743 .5332031 .102996829 .5332031 .09799194 .5332031 .09498596 .5332031 .09098816 .53219607 .114990238 .6030731 .1789856 .63500979 .23298645 .63500979 .33499146 .63500979 .36999513 .5401764 .36999513 .4711914 .36999513 .36915589 .29299928 .28611756 .24499512 .23408509L.06199646 .035995485C.050994874 .024993897 .050994874 .022994996 .050994874 0H.43399049L.46199037 .17704773Z"/>
</defs>
<path transform="matrix(1.00003,0,0,-1,291.88233,295.131)" stroke-width=".19925" stroke-linecap="butt" stroke-miterlimit="10" stroke-linejoin="miter" fill="none" stroke="#d9d9d9" d="M-283.4681-226.77454H283.4681M-283.4681-170.0809H283.4681M-283.4681-113.38727H283.4681M-283.4681-56.69363H283.4681M-283.4681 0H283.4681M-283.4681 56.69363H283.4681M-283.4681 113.38727H283.4681M-283.4681 170.0809H283.4681M-283.4681 226.77454H283.4681M-283.4681 283.4582H283.4681M-226.77454-283.4681V283.4681M-170.0809-283.4681V283.4681M-113.38727-283.4681V283.4681M-56.69363-283.4681V283.4681M0-283.4681V283.4681M56.69363-283.4681V283.4681M113.38727-283.4681V283.4681M170.0809-283.4681V283.4681M226.77454-283.4681V283.4681M283.4582-283.4681V283.4681M283.4681 283.4681"/>
<path transform="matrix(1.00003,0,0,-1,291.88233,295.131)" stroke-width=".3985" stroke-linecap="butt" stroke-miterlimit="10" stroke-linejoin="miter" fill="none" stroke="#000000" d="M-283.4681 0H283.0098"/>
<path transform="matrix(1.00003,0,0,-1,574.90066,295.131)" stroke-width=".31879" stroke-linecap="round" stroke-linejoin="round" fill="none" stroke="#000000" d="M-1.19551 1.59401C-1.09587 .99626 0 .09961 .29886 0 0-.09961-1.09587-.99626-1.19551-1.59401"/>
<use data-text="x" xlink:href="#font_1_1" transform="matrix(9.962899,0,0,-9.9626,578.87899,297.276)"/>
<path transform="matrix(1.00003,0,0,-1,291.88233,295.131)" stroke-width=".3985" stroke-linecap="butt" stroke-miterlimit="10" stroke-linejoin="miter" fill="none" stroke="#000000" d="M0-283.4681V283.0098"/>
<path transform="matrix(0,-1,-1.00003,-0,291.88233,12.121216)" stroke-width=".31879" stroke-linecap="round" stroke-linejoin="round" fill="none" stroke="#000000" d="M-1.19551 1.59401C-1.09587 .99626 0 .09961 .29886 0 0-.09961-1.09587-.99626-1.19551-1.59401"/>
<use data-text="y" xlink:href="#font_1_2" transform="matrix(9.962899,0,0,-9.9626,289.26124,6.206024)"/>
<path transform="matrix(1.00003,0,0,-1,291.88233,295.131)" stroke-width=".3985" stroke-linecap="butt" stroke-miterlimit="10" stroke-linejoin="miter" fill="none" stroke="#000000" d="M-283.4681 2.26778V-2.26778"/>
<use data-text="&#x2212;" xlink:href="#font_2_1" transform="matrix(8.966669,0,0,-8.9664,.21356201,308.414)"/>
<use data-text="1" xlink:href="#font_3_2" transform="matrix(8.966669,0,0,-8.9664,7.381775,308.414)"/>
<use data-text="0" xlink:href="#font_3_1" transform="matrix(8.966669,0,0,-8.9664,11.981689,308.414)"/>
<path transform="matrix(1.00003,0,0,-1,291.88233,295.131)" stroke-width=".3985" stroke-linecap="butt" stroke-miterlimit="10" stroke-linejoin="miter" fill="none" stroke="#000000" d="M-226.77448 2.26778V-2.26778"/>
<use data-text="&#x2212;" xlink:href="#font_2_1" transform="matrix(8.966669,0,0,-8.9664,59.213319,308.414)"/>
<use data-text="8" xlink:href="#font_3_6" transform="matrix(8.966669,0,0,-8.9664,66.38153,308.414)"/>
<path transform="matrix(1.00003,0,0,-1,291.88233,295.131)" stroke-width=".3985" stroke-linecap="butt" stroke-miterlimit="10" stroke-linejoin="miter" fill="none" stroke="#000000" d="M-170.08086 2.26778V-2.26778"/>
<use data-text="&#x2212;" xlink:href="#font_2_1" transform="matrix(8.966669,0,0,-8.9664,115.90805,308.414)"/>
<use data-text="6" xlink:href="#font_3_5" transform="matrix(8.966669,0,0,-8.9664,123.07626,308.414)"/>
<path transform="matrix(1.00003,0,0,-1,291.88233,295.131)" stroke-width=".3985" stroke-linecap="butt" stroke-miterlimit="10" stroke-linejoin="miter" fill="none" stroke="#000000" d="M-113.38724 2.26778V-2.26778"/>
<use data-text="&#x2212;" xlink:href="#font_2_1" transform="matrix(8.966669,0,0,-8.9664,172.60373,308.414)"/>
<use data-text="4" xlink:href="#font_3_4" transform="matrix(8.966669,0,0,-8.9664,179.77194,308.414)"/>
<path transform="matrix(1.00003,0,0,-1,291.88233,295.131)" stroke-width=".3985" stroke-linecap="butt" stroke-miterlimit="10" stroke-linejoin="miter" fill="none" stroke="#000000" d="M-56.69362 2.26778V-2.26778"/>
<use data-text="&#x2212;" xlink:href="#font_2_1" transform="matrix(8.966669,0,0,-8.9664,229.29944,308.414)"/>
<use data-text="2" xlink:href="#font_3_3" transform="matrix(8.966669,0,0,-8.9664,236.46765,308.414)"/>
<path transform="matrix(1.00003,0,0,-1,291.88233,295.131)" stroke-width=".3985" stroke-linecap="butt" stroke-miterlimit="10" stroke-linejoin="miter" fill="none" stroke="#000000" d="M56.69362 2.26778V-2.26778"/>
<use data-text="2" xlink:href="#font_3_3" transform="matrix(8.966669,0,0,-8.9664,346.27397,308.414)"/>
<path transform="matrix(1.00003,0,0,-1,291.88233,295.131)" stroke-width=".3985" stroke-linecap="butt" stroke-miterlimit="10" stroke-linejoin="miter" fill="none" stroke="#000000" d="M113.38724 2.26778V-2.26778"/>
<use data-text="4" xlink:href="#font_3_4" transform="matrix(8.966669,0,0,-8.9664,402.96867,308.414)"/>
<path transform="matrix(1.00003,0,0,-1,291.88233,295.131)" stroke-width=".3985" stroke-linecap="butt" stroke-miterlimit="10" stroke-linejoin="miter" fill="none" stroke="#000000" d="M170.08086 2.26778V-2.26778"/>
<use data-text="6" xlink:href="#font_3_5" transform="matrix(8.966669,0,0,-8.9664,459.66438,308.414)"/>
<path transform="matrix(1.00003,0,0,-1,291.88233,295.131)" stroke-width=".3985" stroke-linecap="butt" stroke-miterlimit="10" stroke-linejoin="miter" fill="none" stroke="#000000" d="M226.77448 2.26778V-2.26778"/>
<use data-text="8" xlink:href="#font_3_6" transform="matrix(8.966669,0,0,-8.9664,516.36007,308.414)"/>
<path transform="matrix(1.00003,0,0,-1,291.88233,295.131)" stroke-width=".3985" stroke-linecap="butt" stroke-miterlimit="10" stroke-linejoin="miter" fill="none" stroke="#000000" d="M283.4681 2.26778V-2.26778"/>
<use data-text="1" xlink:href="#font_3_2" transform="matrix(8.966669,0,0,-8.9664,570.75076,308.414)"/>
<use data-text="0" xlink:href="#font_3_1" transform="matrix(8.966669,0,0,-8.9664,575.3506,308.414)"/>
<path transform="matrix(1.00003,0,0,-1,291.88233,295.131)" stroke-width=".3985" stroke-linecap="butt" stroke-miterlimit="10" stroke-linejoin="miter" fill="none" stroke="#000000" d="M2.26778-283.4681H-2.26778"/>
<use data-text="&#x2212;" xlink:href="#font_2_1" transform="matrix(8.966669,0,0,-8.9664,267.9936,581.073)"/>
<use data-text="1" xlink:href="#font_3_2" transform="matrix(8.966669,0,0,-8.9664,275.1618,581.073)"/>
<use data-text="0" xlink:href="#font_3_1" transform="matrix(8.966669,0,0,-8.9664,279.76173,581.073)"/>
<path transform="matrix(1.00003,0,0,-1,291.88233,295.131)" stroke-width=".3985" stroke-linecap="butt" stroke-miterlimit="10" stroke-linejoin="miter" fill="none" stroke="#000000" d="M2.26778-226.77448H-2.26778"/>
<use data-text="&#x2212;" xlink:href="#font_2_1" transform="matrix(8.966669,0,0,-8.9664,272.60176,524.38)"/>
<use data-text="8" xlink:href="#font_3_6" transform="matrix(8.966669,0,0,-8.9664,279.76997,524.38)"/>
<path transform="matrix(1.00003,0,0,-1,291.88233,295.131)" stroke-width=".3985" stroke-linecap="butt" stroke-miterlimit="10" stroke-linejoin="miter" fill="none" stroke="#000000" d="M2.26778-170.08086H-2.26778"/>
<use data-text="&#x2212;" xlink:href="#font_2_1" transform="matrix(8.966669,0,0,-8.9664,272.60176,467.686)"/>
<use data-text="6" xlink:href="#font_3_5" transform="matrix(8.966669,0,0,-8.9664,279.76997,467.686)"/>
<path transform="matrix(1.00003,0,0,-1,291.88233,295.131)" stroke-width=".3985" stroke-linecap="butt" stroke-miterlimit="10" stroke-linejoin="miter" fill="none" stroke="#000000" d="M2.26778-113.38724H-2.26778"/>
<use data-text="&#x2212;" xlink:href="#font_2_1" transform="matrix(8.966669,0,0,-8.9664,272.60176,410.992)"/>
<use data-text="4" xlink:href="#font_3_4" transform="matrix(8.966669,0,0,-8.9664,279.76997,410.992)"/>
<path transform="matrix(1.00003,0,0,-1,291.88233,295.131)" stroke-width=".3985" stroke-linecap="butt" stroke-miterlimit="10" stroke-linejoin="miter" fill="none" stroke="#000000" d="M2.26778-56.69362H-2.26778"/>
<use data-text="&#x2212;" xlink:href="#font_2_1" transform="matrix(8.966669,0,0,-8.9664,272.60176,354.299)"/>
<use data-text="2" xlink:href="#font_3_3" transform="matrix(8.966669,0,0,-8.9664,279.76997,354.299)"/>
<path transform="matrix(1.00003,0,0,-1,291.88233,295.131)" stroke-width=".3985" stroke-linecap="butt" stroke-miterlimit="10" stroke-linejoin="miter" fill="none" stroke="#000000" d="M2.26778 56.69362H-2.26778"/>
<use data-text="2" xlink:href="#font_3_3" transform="matrix(8.966669,0,0,-8.9664,279.76896,241.32701)"/>
<path transform="matrix(1.00003,0,0,-1,291.88233,295.131)" stroke-width=".3985" stroke-linecap="butt" stroke-miterlimit="10" stroke-linejoin="miter" fill="none" stroke="#000000" d="M2.26778 113.38724H-2.26778"/>
<use data-text="4" xlink:href="#font_3_4" transform="matrix(8.966669,0,0,-8.9664,279.76896,184.63301)"/>
<path transform="matrix(1.00003,0,0,-1,291.88233,295.131)" stroke-width=".3985" stroke-linecap="butt" stroke-miterlimit="10" stroke-linejoin="miter" fill="none" stroke="#000000" d="M2.26778 170.08086H-2.26778"/>
<use data-text="6" xlink:href="#font_3_5" transform="matrix(8.966669,0,0,-8.9664,279.76896,127.93901)"/>
<path transform="matrix(1.00003,0,0,-1,291.88233,295.131)" stroke-width=".3985" stroke-linecap="butt" stroke-miterlimit="10" stroke-linejoin="miter" fill="none" stroke="#000000" d="M2.26778 226.77448H-2.26778"/>
<use data-text="8" xlink:href="#font_3_6" transform="matrix(8.966669,0,0,-8.9664,279.76896,71.24602)"/>
<path transform="matrix(1.00003,0,0,-1,291.88233,295.131)" stroke-width=".3985" stroke-linecap="butt" stroke-miterlimit="10" stroke-linejoin="miter" fill="none" stroke="#000000" d="M2.26778 283.4681H-2.26778"/>
<use data-text="1" xlink:href="#font_3_2" transform="matrix(8.966669,0,0,-8.9664,275.1618,14.552002)"/>
<use data-text="0" xlink:href="#font_3_1" transform="matrix(8.966669,0,0,-8.9664,279.76173,14.552002)"/>
</svg>
