<svg xmlns="http://www.w3.org/2000/svg" xmlns:xlink="http://www.w3.org/1999/xlink" xmlns:inkscape="http://www.inkscape.org/namespaces/inkscape" version="1.1" width="191" height="191" viewBox="0 0 191 191">
<defs>
<path id="font_1_3" d="M.33399964 .30233766C.33999635 .32835389 .36299134 .42037965 .43299867 .42037965 .43798829 .42037965 .46199037 .42037965 .48298646 .40734864 .45498658 .402359 .43499757 .37734986 .43499757 .35334779 .43499757 .33735658 .44599916 .31835938 .47299195 .31835938 .49499513 .31835938 .5269928 .3363495 .5269928 .37635804 .5269928 .42837525 .46798707 .4423828 .43399049 .4423828 .37599183 .4423828 .34098817 .38935853 .32899476 .36634828 .3039856 .43237306 .25 .4423828 .22099304 .4423828 .116989139 .4423828 .05999756 .3133545 .05999756 .28834535 .05999756 .27833558 .069992069 .27833558 .07199097 .27833558 .07998657 .27833558 .08299255 .28033448 .084991458 .28933717 .11898804 .39535523 .18499756 .42037965 .21899414 .42037965 .23799134 .42037965 .272995 .4113617 .272995 .35334779 .272995 .32235719 .2559967 .25532533 .21899414 .11528015 .20298767 .053268434 .16799927 .011245728 .12399292 .011245728 .117996219 .011245728 .09498596 .011245728 .07398987 .024276734 .09899902 .029266358 .12098694 .05027771 .12098694 .07827759 .12098694 .105270389 .09899902 .11328125 .083999637 .11328125 .053985597 .11328125 .0289917 .08728027 .0289917 .055267335 .0289917 .009246826 .07899475-.0107421879 .12298584-.0107421879 .18899536-.0107421879 .22499085 .059280397 .22799683 .0652771 .23999024 .028274537 .27598573-.0107421879 .33599855-.0107421879 .43899537-.0107421879 .49598695 .118270877 .49598695 .14328003 .49598695 .1532898 .4869995 .1532898 .48399354 .1532898 .47499085 .1532898 .47299195 .14929199 .47099305 .14228821 .43798829 .03527832 .36999513 .011245728 .33799745 .011245728 .29899598 .011245728 .2829895 .043273927 .2829895 .07727051 .2829895 .09927368 .2889862 .121276859 .2999878 .16529846L.33399964 .30233766Z"/>
<path id="font_1_4" d="M.48599244 .38136292C.48999024 .39537049 .48999024 .39736939 .48999024 .40437318 .48999024 .42237855 .47599793 .43138124 .46099855 .43138124 .45098878 .43138124 .43499757 .42536927 .42599488 .41036988 .42399598 .405365 .41600038 .37435914 .4119873 .35635377 .40499879 .33035279 .397995 .30334474 .3919983 .27633668L.34700013 .09628296C.34298707 .08126831 .2999878 .011245728 .23399353 .011245728 .18299866 .011245728 .17199707 .055267335 .17199707 .0922699 .17199707 .1382904 .18899536 .20030213 .22299195 .28833009 .23899842 .3293457 .24299622 .3403473 .24299622 .36035157 .24299622 .405365 .21099854 .4423828 .16099549 .4423828 .06599426 .4423828 .0289917 .29733277 .0289917 .28833009 .0289917 .27833558 .038986207 .27833558 .040985109 .27833558 .050994874 .27833558 .051986696 .28033448 .056991579 .29634095 .083999637 .3903656 .12399292 .42037965 .1579895 .42037965 .1659851 .42037965 .18299866 .42037965 .18299866 .3883667 .18299866 .36335755 .17298889 .3373413 .1659851 .31834413 .12599182 .21231079 .10798645 .1552887 .10798645 .10827637 .10798645 .019256592 .17098999-.0107421879 .22999573-.0107421879 .2689972-.0107421879 .30299378 .0062561037 .33099366 .03425598 .31799317-.017745972 .30599977-.06674194 .2659912-.11973572 .23999024-.15385437 .20199585-.18309021 .1559906-.18309021 .14199829-.18309021 .09700012-.18005371 .07998657-.14074707 .09599304-.14074707 .10899353-.14074707 .12298584-.1287384 .1329956-.11973572 .14299011-.10673523 .14299011-.08773804 .14299011-.056747438 .115997318-.052734376 .10598755-.052734376 .08299255-.052734376 .049987794-.068740848 .049987794-.11773682 .049987794-.16796875 .09399414-.20507813 .1559906-.20507813 .25898744-.20507813 .3619995-.11373901 .3899994-.00074768069L.48599244 .38136292Z"/>
<path id="font_2_1" d="M.3039856 .6392822C.3039856 .6642761 .30299378 .666275 .27799989 .666275 .21598816 .60227969 .12399292 .60227969 .09298706 .60227969V.57128909C.11199951 .57128909 .17298889 .57128909 .22698975 .5972748V.08001709C.22698975 .042999269 .22399903 .0309906 .1309967 .0309906H.09899902V0C.1349945 .0029907227 .22399903 .0029907227 .2649994 .0029907227 .30599977 .0029907227 .3959961 .0029907227 .43199159 0V.0309906H.3999939C.30699159 .0309906 .3039856 .042999269 .3039856 .08001709V.6392822Z"/>
<path id="font_3_2" d="M.2869873 .6603241C.29100038 .67433169 .29100038 .67633059 .29100038 .68032839 .29100038 .68933108 .2849884 .69433596 .27598573 .69433596 .2619934 .69433596 .17399597 .6863251 .1539917 .6843262 .14399719 .68333438 .1329956 .6823273 .1329956 .665329 .1329956 .6523285 .14399719 .6523285 .1599884 .6523285 .20698548 .6523285 .20698548 .6453247 .20698548 .6363373 .20698548 .6323395 .20698548 .6303406 .20199585 .6123352L.05899048 .037261964C.054992677 .023254395 .054992677 .021255494 .054992677 .018249512 .054992677 .002243042 .067993167-.0107421879 .085998538-.0107421879 .102996829-.0107421879 .116989139-.00074768069 .12399292 .013244629 .12599182 .018249512 .1349945 .054260255 .13999939 .07527161L.16299439 .16429138C.1659851 .17930603 .17599488 .21731568 .1789856 .23231507L.19099427 .27633668C.19599915 .29934693 .25299073 .41737367 .36099244 .41737367 .4149933 .41737367 .4149933 .36436463 .4149933 .34735108 .4149933 .28633119 .36799623 .16429138 .35699464 .13328552 .34498597 .10227966 .34098817 .0922699 .34098817 .073272708 .34098817 .019256592 .38198854-.0107421879 .4269867-.0107421879 .522995-.0107421879 .56199648 .1322937 .56199648 .14329529 .56199648 .14828491 .5589905 .1552887 .548996 .1552887 .5379944 .1552887 .5369873 .15029907 .5329895 .13728333 .5079956 .052261354 .46598817 .014251709 .42999269 .014251709 .4229889 .014251709 .40499879 .014251709 .40499879 .04626465 .40499879 .0712738 .4149933 .09727478 .4229889 .119277957 .44299317 .17030335 .48298646 .27633668 .48298646 .33235169 .48298646 .42137147 .4169922 .4423828 .3639984 .4423828 .3039856 .4423828 .25299073 .41438294 .21299744 .36535646L.2869873 .6603241Z"/>
<path id="font_2_2" d="M.46199037 .17704773H.43399049C.43199159 .16404724 .42399598 .10501099 .41099549 .08900452 .40499879 .07998657 .33599855 .07998657 .31599427 .07998657H.13798523L.23699951 .17404175C.40098573 .3161316 .46199037 .36915589 .46199037 .4711914 .46199037 .5860901 .36698915 .6660156 .24398804 .6660156 .1289978 .6660156 .050994874 .575119 .050994874 .4841919 .050994874 .43418885 .09399414 .42919923 .102996829 .42919923 .125 .42919923 .15499878 .44519044 .15499878 .48120118 .15499878 .51119998 .13398743 .5332031 .102996829 .5332031 .09799194 .5332031 .09498596 .5332031 .09098816 .53219607 .114990238 .6030731 .1789856 .63500979 .23298645 .63500979 .33499146 .63500979 .36999513 .5401764 .36999513 .4711914 .36999513 .36915589 .29299928 .28611756 .24499512 .23408509L.06199646 .035995485C.050994874 .024993897 .050994874 .022994996 .050994874 0H.43399049L.46199037 .17704773Z"/>
<path id="font_2_3" d="M.30499269 .35195924C.397995 .38697816 .44198609 .46006776 .44198609 .5290985 .44198609 .60606387 .35699464 .6660156 .25299073 .6660156 .14898682 .6660156 .070999149 .60705569 .070999149 .5310974 .070999149 .49809266 .09298706 .47909547 .12199402 .47909547 .15098572 .47909547 .17199707 .50009158 .17199707 .5290985 .17199707 .5640869 .147995 .57910159 .11399841 .57910159 .13999939 .6210327 .20098877 .64100649 .25 .64100649 .33299256 .64100649 .34899903 .5750885 .34899903 .52809146 .34899903 .49809266 .34298707 .45005799 .31799317 .41201783 .2869873 .36695863 .2519989 .36495973 .22299195 .36296083 .19799805 .36094667 .19599915 .36094667 .18798828 .36094667 .1789856 .35995484 .17098999 .35894776 .17098999 .34794618 .17098999 .33496095 .1789856 .33496095 .19599915 .33496095H.24299622C.32998658 .33496095 .36799623 .2646637 .36799623 .16937256 .36799623 .04145813 .2999878 .0055389406 .24899292 .0055389406 .22999573 .0055389406 .1329956 .010528564 .08799744 .0843811 .12399292 .07939148 .1519928 .10437012 .1519928 .13838196 .1519928 .17137146 .1269989 .19238281 .09799194 .19238281 .07299805 .19238281 .042999269 .17736817 .042999269 .13537598 .042999269 .046447755 .13598633-.022460938 .2519989-.022460938 .3769989-.022460938 .46998597 .06741333 .46998597 .16937256 .46998597 .25663758 .40098573 .33093263 .30499269 .35195924Z"/>
<path id="font_2_4" d="M.0289917 .19602967V.16503906H.3019867V.07901001C.3019867 .041992189 .29899598 .0309906 .22399903 .0309906H.20199585V0C.2649994 .0029907227 .33499146 .0029907227 .34199525 .0029907227 .34700013 .0029907227 .4189911 .0029907227 .48199464 0V.0309906H.45999146C.3849945 .0309906 .38198854 .041992189 .38198854 .07901001V.16503906H.48399354V.19602967H.38198854V.64974978C.38198854 .669754 .38198854 .6767578 .36299134 .6767578 .35099793 .6767578 .34999085 .67575076 .34098817 .66174319L.0289917 .19602967M.06098938 .19602967 .30799867 .56581118V.19602967H.06098938Z"/>
<path id="font_2_5" d="M.10398865 .3444519C.10398865 .32641603 .10398865 .31539918 .117996219 .31539918 .12599182 .31539918 .1289978 .31941224 .1349945 .32843019 .16499329 .3704834 .21299744 .39453126 .2649994 .39453126 .37199403 .39453126 .37199403 .24029541 .37199403 .20425415 .37199403 .17324829 .37199403 .11125183 .34399415 .06637573 .31698609 .024475098 .2749939 .0055389406 .23599243 .0055389406 .1769867 .0055389406 .10998535 .042434694 .085998538 .116256717 .08699036 .116256717 .09298706 .11425781 .099990848 .11425781 .11999512 .11425781 .14898682 .12724304 .14898682 .16325379 .14898682 .19424439 .1269989 .21224976 .099990848 .21224976 .07899475 .21224976 .050994874 .20025635 .050994874 .1602478 .050994874 .069366458 .1269989-.022460938 .23799134-.022460938 .35899354-.022460938 .46199037 .0753479 .46199037 .19924927 .46199037 .3204193 .37599183 .41952516 .2669983 .41952516 .21899414 .41952516 .16999817 .40351869 .1349945 .36747743V.56477358C.16499329 .5557709 .19599915 .55078127 .22698975 .55078127 .34999085 .55078127 .42199708 .6397705 .42199708 .652771 .42199708 .6617737 .41600038 .6657715 .41099549 .6657715 .40899659 .6657715 .40699769 .6657715 .397995 .6607666 .35099793 .6417694 .30499269 .6337738 .2630005 .6337738 .21998596 .6337738 .1749878 .6417694 .1289978 .6607666 .11898804 .6657715 .116989139 .6657715 .115997318 .6657715 .10398865 .6657715 .10398865 .655777 .10398865 .6387787V.3444519Z"/>
<path id="font_2_6" d="M.13398743 .33073426C.13398743 .43276979 .14498902 .4897766 .17199707 .54177859 .19198609 .58277896 .24099732 .64100649 .31498719 .64100649 .33499146 .64100649 .3809967 .63697817 .4039917 .6007843 .36698915 .6007843 .35099793 .5817871 .35099793 .55477908 .35099793 .5287781 .36898805 .50878909 .39698792 .50878909 .4249878 .50878909 .44400025 .5267792 .44400025 .55677798 .44400025 .612854 .4039917 .6660156 .31298829 .6660156 .18399048 .6660156 .042999269 .53878787 .042999269 .3157196 .042999269 .044555665 .16499329-.022460938 .25898744-.022460938 .36999513-.022460938 .46998597 .0705719 .46998597 .20265198 .46998597 .32972718 .37799073 .42578126 .2649994 .42578126 .20498657 .42578126 .1619873 .39076234 .13398743 .33073426M.2579956 .0055389406C.20098877 .0055389406 .16799927 .05256653 .1559906 .08157349 .13699341 .12660218 .13598633 .20965576 .13598633 .22566223 .13598633 .29270936 .16699219 .4007721 .2630005 .4007721 .2789917 .4007721 .32798768 .4007721 .3600006 .33872987 .3789978 .30070497 .3789978 .25167848 .3789978 .20365906 .3789978 .15562439 .3789978 .1065979 .3600006 .06956482 .32899476 .012542725 .2849884 .0055389406 .2579956 .0055389406Z"/>
<path id="font_1_2" d="M.375 .6136017C.3809967 .63760378 .38398744 .6476135 .40299989 .65060427 .4119873 .6516113 .44400025 .6516113 .46398927 .6516113 .5349884 .6516113 .6459961 .6516113 .6459961 .5525818 .6459961 .51856997 .6299896 .44955445 .59098818 .41055299 .5649872 .38453675 .5119934 .35253907 .42199708 .35253907H.30999757L.375 .6136017M.5189972 .33953858C.6199951 .3615265 .7389984 .43154908 .7389984 .5325775 .7389984 .61860659 .6489868 .6826172 .5179901 .6826172H.23298645C.21299744 .6826172 .20399475 .6826172 .20399475 .6626129 .20399475 .6516113 .21299744 .6516113 .23199463 .6516113 .23399353 .6516113 .25299073 .6516113 .269989 .6496124 .28799439 .6476135 .29699708 .64660647 .29699708 .63360598 .29699708 .62960818 .29599 .6266022 .29299928 .6145935L.15899658 .07752991C.14898682 .038528444 .14698792 .030532837 .067993167 .030532837 .049987794 .030532837 .040985109 .030532837 .040985109 .010528564 .040985109-.00047302247 .052993776-.00047302247 .054992677-.00047302247 .08299255-.00047302247 .15299988 .002532959 .18099976 .002532959 .20899964 .002532959 .27999879-.00047302247 .30799867-.00047302247 .31599427-.00047302247 .32798768-.00047302247 .32798768 .01953125 .32798768 .030532837 .31900025 .030532837 .2999878 .030532837 .2630005 .030532837 .23498535 .030532837 .23498535 .048538209 .23498535 .054534913 .23699951 .059524537 .23799134 .0655365L.3039856 .3305359H.4229889C.5139923 .3305359 .5319977 .27453614 .5319977 .23953247 .5319977 .22453308 .5239868 .19352722 .5179901 .17053223 .5109863 .14253235 .5019989 .105529788 .5019989 .08552551 .5019989-.022460938 .621994-.022460938 .6349945-.022460938 .7200012-.022460938 .7549896 .07853699 .7549896 .0925293 .7549896 .104537967 .74398806 .104537967 .7429962 .104537967 .73399356 .104537967 .7319946 .09753418 .7299957 .090530399 .7049866 .016525269 .6619873-.00047302247 .6389923-.00047302247 .60598757-.00047302247 .598999 .021530152 .598999 .060531618 .598999 .091537479 .6049957 .14253235 .60899356 .17453003 .61099246 .1885376 .61299136 .20753479 .61299136 .2215271 .61299136 .2985382 .54599 .3295288 .5189972 .33953858Z"/>
<path id="font_1_1" d="M.7599945 .69506838C.7599945 .69807437 .7579956 .7050781 .7489929 .7050781 .74598696 .7050781 .7449951 .70407107 .73399356 .69306948L.6639862 .61602786C.6549988 .6300354 .60899356 .7050781 .49798585 .7050781 .2749939 .7050781 .049987794 .48391725 .049987794 .25172425 .049987794 .08659363 .16799927-.022460938 .32099916-.022460938 .4079895-.022460938 .48399354 .017532349 .5369873 .063583377 .6299896 .14564514 .6469879 .2367096 .6469879 .23971558 .6469879 .24972534 .6369934 .24972534 .6349945 .24972534 .6289978 .24972534 .6239929 .24772644 .621994 .23971558 .61299136 .21069336 .58999636 .13963318 .5209961 .081588748 .45199586 .025543213 .3889923 .008529663 .33699037 .008529663 .24699402 .008529663 .14099121 .060577394 .14099121 .21670532 .14099121 .27374269 .1619873 .43588258 .2619934 .55296328 .32299806 .62402346 .4169922 .67407229 .5059967 .67407229 .60798647 .67407229 .6669922 .5970001 .6669922 .48091126 .6669922 .44088746 .6639862 .43988038 .6639862 .4298706 .6639862 .41986085 .6749878 .41986085 .67900088 .41986085 .69200137 .41986085 .69200137 .42185975 .69699099 .43988038L.7599945 .69506838Z"/>
<path id="font_3_1" d="M.30899049 .31378175H.47599793C.6380005 .31378175 .769989 .42474366 .769989 .5306854 .769989 .6096344 .69898989 .6826172 .56799319 .6826172H.23799134C.21998596 .6826172 .20799256 .6826172 .20799256 .6646118 .20799256 .6516113 .21699524 .6516113 .23799134 .6516113 .24198914 .6516113 .2599945 .6516113 .27598573 .6496124 .29299928 .6476135 .2999878 .6456146 .2999878 .63461306 .2999878 .6296234 .29899598 .6256256 .29599 .614624L.16099549 .07595825C.1519928 .039993287 .1499939 .0309906 .07499695 .0309906 .055999757 .0309906 .04499817 .0309906 .04499817 .0129852299 .04499817 .0019989014 .052993776 0 .05999756 0 .07899475 0 .10398865 .0009918213 .12298584 .0019989014 .15299988 .0029907227 .15499878 .0029907227 .18699646 .0029907227 .21899414 .0029907227 .22099304 .0029907227 .25099183 .0019989014 .2709961 .0009918213 .29699708 0 .31599427 0 .32299806 0 .33599855 0 .33599855 .017990113 .33599855 .0309906 .32598878 .0309906 .30499269 .0309906 .30099488 .0309906 .2829895 .0309906 .2669983 .032989503 .24499512 .035995485 .24398804 .039993287 .24398804 .048980714 .24398804 .051971437 .24398804 .053970338 .24899292 .07196045L.30899049 .31378175M.3809967 .6126251C.3899994 .64860537 .3919983 .6516113 .43399049 .6516113H.5349884C.61299136 .6516113 .6749878 .6276245 .6749878 .55467227 .6749878 .53367617 .6639862 .43972779 .6119995 .39175416 .58999636 .37176515 .5439911 .34179688 .45799256 .34179688H.31298829L.3809967 .6126251Z"/>
<path id="font_4_1" d="M.35899354 .6349335C.35899354 .66503909 .35499574 .66503909 .32499696 .66503909 .25898744 .60058596 .15699768 .60058596 .12098694 .60058596V.5615845C.14698792 .5615845 .21299744 .5615845 .272995 .58958438V.08496094C.272995 .051986696 .272995 .038986207 .16999817 .038986207H.1269989V0C.18199158 .0039978029 .2599945 .0039978029 .31599427 .0039978029 .37199403 .0039978029 .44999696 .0039978029 .5049896 0V.038986207H.46199037C.35899354 .038986207 .35899354 .051986696 .35899354 .08496094V.6349335Z"/>
<path id="font_4_3" d="M.2939911 .33203126C.3789978 .33203126 .43598939 .274765 .43598939 .17237854 .43598939 .062408449 .36999513 .014511108 .29699708 .014511108 .269989 .014511108 .16699219 .020492554 .12199402 .07836914 .16099549 .0823822 .1769867 .10836792 .1769867 .13537598 .1769867 .16937256 .15299988 .19238281 .11999512 .19238281 .09298706 .19238281 .06298828 .17536927 .06298828 .13337708 .06298828 .034469606 .17298889-.021484375 .2999878-.021484375 .44799806-.021484375 .5469971 .07337952 .5469971 .17237854 .5469971 .24562073 .4909973 .3229828 .37199403 .35302735 .45098878 .37902833 .5149994 .44306947 .5149994 .5251007 .5149994 .60505679 .42099 .66503909 .30099488 .66503909 .18399048 .66503909 .09498596 .61105349 .09498596 .5290985 .09498596 .48609925 .12799073 .47409059 .147995 .47409059 .17399597 .47409059 .20098877 .49209596 .20098877 .5270996 .20098877 .5580902 .1789856 .5760956 .1519928 .5800934 .19898987 .6320343 .2899933 .6320343 .29899598 .6320343 .34999085 .6320343 .4139862 .60806277 .4139862 .5251007 .4139862 .47009278 .3829956 .37402345 .2829895 .36802674 .2649994 .36701966 .23799134 .36502076 .22898865 .36502076 .21899414 .36402894 .20799256 .36302186 .20799256 .34802247 .20799256 .33203126 .21899414 .33203126 .23599243 .33203126H.2939911Z"/>
<path id="font_4_2" d="M.5379944 .18702698H.5009918C.49899293 .17301941 .4889984 .10699463 .47399903 .09599304 .46699525 .08999634 .38598634 .08999634 .37199403 .08999634H.18499756L.31298829 .19403076C.34700013 .22103882 .43598939 .28504945 .46699525 .31506349 .49699403 .3450775 .5379944 .39608766 .5379944 .46710206 .5379944 .5920563 .4249878 .66503909 .29100038 .66503909 .1619873 .66503909 .07199097 .58006289 .07199097 .48609925 .07199097 .43510438 .114990238 .42910768 .12599182 .42910768 .15098572 .42910768 .17999268 .44709779 .17999268 .48310853 .17999268 .50509646 .16699219 .5371094 .12298584 .5371094 .1459961 .5880585 .20698548 .6260376 .27598573 .6260376 .3809967 .6260376 .43699647 .5480957 .43699647 .46710206 .43699647 .39608766 .3899994 .32305909 .31999208 .25904847L.08299255 .041992189C.07299805 .03199768 .07199097 .0309906 .07199097 0H.5069885L.5379944 .18702698Z"/>
</defs>
<path transform="matrix(1.00003,0,0,-1.00008,12.979942,179.49231)" stroke-width=".3985" stroke-linecap="butt" stroke-miterlimit="10" stroke-linejoin="miter" fill="none" stroke="#b2b3b2" d="M0 0H158.74274M0 22.67752H158.74274M0 45.35506H158.74274M0 68.0326H158.74274M0 90.71013H158.74274M0 113.38766H158.74274M0 136.0652H158.74274M0 158.73476H158.74274M0 0V158.74274M22.67752 0V158.74274M45.35506 0V158.74274M68.0326 0V158.74274M90.71013 0V158.74274M113.38766 0V158.74274M136.0652 0V158.74274M158.73476 0V158.74274M158.74274 158.74274"/>
<path transform="matrix(1.00003,0,0,-1.00008,12.979942,179.49231)" stroke-width=".3985" stroke-linecap="butt" stroke-miterlimit="10" stroke-linejoin="miter" fill="none" stroke="#000000" d="M-6.8033 0H167.35532"/>
<path transform="matrix(1.00003,0,0,-1.00008,180.34027,179.49231)" stroke-width=".31879" stroke-linecap="round" stroke-linejoin="round" fill="none" stroke="#000000" d="M-1.19551 1.59401C-1.09587 .99626 0 .09961 .29886 0 0-.09961-1.09587-.99626-1.19551-1.59401"/>
<use data-text="x" xlink:href="#font_1_3" transform="matrix(9.962899,0,0,-9.963397,184.31809,181.63748)"/>
<path transform="matrix(1.00003,0,0,-1.00008,12.979942,179.49231)" stroke-width=".3985" stroke-linecap="butt" stroke-miterlimit="10" stroke-linejoin="miter" fill="none" stroke="#000000" d="M0-6.8033V167.35532"/>
<path transform="matrix(0,-1.00008,-1.00003,-0,12.979942,12.123611)" stroke-width=".31879" stroke-linecap="round" stroke-linejoin="round" fill="none" stroke="#000000" d="M-1.19551 1.59401C-1.09587 .99626 0 .09961 .29886 0 0-.09961-1.09587-.99626-1.19551-1.59401"/>
<use data-text="y" xlink:href="#font_1_4" transform="matrix(9.962899,0,0,-9.963397,10.358864,6.2074587)"/>
<use data-text="1" xlink:href="#font_2_1" transform="matrix(8.966669,0,0,-8.967117,30.69947,189.4101)"/>
<use data-text="h" xlink:href="#font_3_2" transform="matrix(8.966669,0,0,-8.967117,35.30761,189.4101)"/>
<use data-text="2" xlink:href="#font_2_2" transform="matrix(8.966669,0,0,-8.967117,53.377157,189.4101)"/>
<use data-text="h" xlink:href="#font_3_2" transform="matrix(8.966669,0,0,-8.967117,57.985296,189.4101)"/>
<use data-text="3" xlink:href="#font_2_3" transform="matrix(8.966669,0,0,-8.967117,76.05584,189.4101)"/>
<use data-text="h" xlink:href="#font_3_2" transform="matrix(8.966669,0,0,-8.967117,80.66398,189.4101)"/>
<use data-text="4" xlink:href="#font_2_4" transform="matrix(8.966669,0,0,-8.967117,98.73352,189.4101)"/>
<use data-text="h" xlink:href="#font_3_2" transform="matrix(8.966669,0,0,-8.967117,103.34166,189.4101)"/>
<use data-text="5" xlink:href="#font_2_5" transform="matrix(8.966669,0,0,-8.967117,121.4122,189.4101)"/>
<use data-text="h" xlink:href="#font_3_2" transform="matrix(8.966669,0,0,-8.967117,126.02034,189.4101)"/>
<use data-text="6" xlink:href="#font_2_6" transform="matrix(8.966669,0,0,-8.967117,144.08988,189.4101)"/>
<use data-text="h" xlink:href="#font_3_2" transform="matrix(8.966669,0,0,-8.967117,148.69803,189.4101)"/>
<use data-text="1" xlink:href="#font_2_1" transform="matrix(8.966669,0,0,-8.967117,1.2175903,159.92675)"/>
<use data-text="h" xlink:href="#font_3_2" transform="matrix(8.966669,0,0,-8.967117,5.8257296,159.92675)"/>
<use data-text="2" xlink:href="#font_2_2" transform="matrix(8.966669,0,0,-8.967117,1.2175903,137.24694)"/>
<use data-text="h" xlink:href="#font_3_2" transform="matrix(8.966669,0,0,-8.967117,5.8257296,137.24694)"/>
<use data-text="3" xlink:href="#font_2_3" transform="matrix(8.966669,0,0,-8.967117,1.2175903,114.568119)"/>
<use data-text="h" xlink:href="#font_3_2" transform="matrix(8.966669,0,0,-8.967117,5.8257296,114.568119)"/>
<use data-text="4" xlink:href="#font_2_4" transform="matrix(8.966669,0,0,-8.967117,1.2175903,91.888309)"/>
<use data-text="h" xlink:href="#font_3_2" transform="matrix(8.966669,0,0,-8.967117,5.8257296,91.888309)"/>
<use data-text="5" xlink:href="#font_2_5" transform="matrix(8.966669,0,0,-8.967117,1.2175903,69.20949)"/>
<use data-text="h" xlink:href="#font_3_2" transform="matrix(8.966669,0,0,-8.967117,5.8257296,69.20949)"/>
<use data-text="6" xlink:href="#font_2_6" transform="matrix(8.966669,0,0,-8.967117,1.2175903,46.52968)"/>
<use data-text="h" xlink:href="#font_3_2" transform="matrix(8.966669,0,0,-8.967117,5.8257296,46.52968)"/>
<path transform="matrix(1.00003,0,0,-1.00008,12.979942,179.49231)" d="M22.67752 22.67752C11.33876 56.69382 18.14206 124.72643 45.35506 147.40396 68.0326 158.74274 117.9231 154.20728 136.0652 136.0652 147.40396 113.38766 151.93939 68.0326 136.0652 45.35506 113.38766 18.14206 68.0326 6.8033 45.35506 11.33876 34.01628 15.87419 24.9454 18.14206 22.67752 22.67752Z" fill="#f5d7d7" fill-opacity=".55"/>
<use data-text="R" xlink:href="#font_1_2" transform="matrix(9.962899,0,0,-9.963397,88.53321,92.17933)"/>
<path transform="matrix(1.00003,0,0,-1.00008,12.979942,179.49231)" stroke-width="1.19553" stroke-linecap="butt" stroke-miterlimit="10" stroke-linejoin="miter" fill="none" stroke="#d2e6fa" d="M22.67752 22.67752C11.33876 56.69382 18.14206 124.72643 45.35506 147.40396 68.0326 158.74274 117.9231 154.20728 136.0652 136.0652 147.40396 113.38766 151.93939 68.0326 136.0652 45.35506 113.38766 18.14206 68.0326 6.8033 45.35506 11.33876 34.01628 15.87419 24.9454 18.14206 22.67752 22.67752Z"/>
<use data-text="C" xlink:href="#font_1_1" transform="matrix(9.962899,0,0,-9.963397,151.93613,40.01616)"/>
<path transform="matrix(1.00003,0,0,-1.00008,12.979942,179.49231)" d="M24.90918 68.0326C24.90918 69.2651 23.91003 70.26425 22.67752 70.26425 21.44499 70.26425 20.44585 69.2651 20.44585 68.0326 20.44585 66.80006 21.44499 65.80092 22.67752 65.80092 23.91003 65.80092 24.90918 66.80006 24.90918 68.0326ZM22.67752 68.0326"/>
<use data-text="P" xlink:href="#font_3_1" transform="matrix(8.966669,0,0,-8.967117,39.17773,114.02007)"/>
<use data-text="1" xlink:href="#font_4_1" transform="matrix(5.97778,0,0,-5.9780786,45.06191,115.01615)"/>
<use data-text="3" xlink:href="#font_4_3" transform="matrix(5.97778,0,0,-5.9780786,48.71433,115.01615)"/>
<path transform="matrix(1.00003,0,0,-1.00008,12.979942,179.49231)" d="M24.90918 45.35506C24.90918 46.58757 23.91003 47.58672 22.67752 47.58672 21.44499 47.58672 20.44585 46.58757 20.44585 45.35506 20.44585 44.12253 21.44499 43.12338 22.67752 43.12338 23.91003 43.12338 24.90918 44.12253 24.90918 45.35506ZM22.67752 45.35506"/>
<use data-text="P" xlink:href="#font_3_1" transform="matrix(8.966669,0,0,-8.967117,39.17773,136.69889)"/>
<use data-text="1" xlink:href="#font_4_1" transform="matrix(5.97778,0,0,-5.9780786,45.06191,137.69496)"/>
<use data-text="2" xlink:href="#font_4_2" transform="matrix(5.97778,0,0,-5.9780786,48.71433,137.69496)"/>
<path transform="matrix(1.00003,0,0,-1.00008,12.979942,179.49231)" d="M24.90918 22.67752C24.90918 23.91003 23.91003 24.90918 22.67752 24.90918 21.44499 24.90918 20.44585 23.91003 20.44585 22.67752 20.44585 21.44499 21.44499 20.44585 22.67752 20.44585 23.91003 20.44585 24.90918 21.44499 24.90918 22.67752ZM22.67752 22.67752"/>
<use data-text="P" xlink:href="#font_3_1" transform="matrix(8.966669,0,0,-8.967117,39.17773,159.37871)"/>
<use data-text="1" xlink:href="#font_4_1" transform="matrix(5.97778,0,0,-5.9780786,45.06191,160.37479)"/>
<use data-text="1" xlink:href="#font_4_1" transform="matrix(5.97778,0,0,-5.9780786,48.71433,160.37479)"/>
<path transform="matrix(1.00003,0,0,-1.00008,12.979942,179.49231)" d="M70.26425 22.67752C70.26425 23.91003 69.2651 24.90918 68.0326 24.90918 66.80006 24.90918 65.80092 23.91003 65.80092 22.67752 65.80092 21.44499 66.80006 20.44585 68.0326 20.44585 69.2651 20.44585 70.26425 21.44499 70.26425 22.67752ZM68.0326 22.67752"/>
<use data-text="P" xlink:href="#font_3_1" transform="matrix(8.966669,0,0,-8.967117,84.534099,159.37871)"/>
<use data-text="3" xlink:href="#font_4_3" transform="matrix(5.97778,0,0,-5.9780786,90.418277,160.37479)"/>
<use data-text="1" xlink:href="#font_4_1" transform="matrix(5.97778,0,0,-5.9780786,94.070697,160.37479)"/>
<path transform="matrix(1.00003,0,0,-1.00008,12.979942,179.49231)" d="M47.74612 45.35506C47.74612 46.67561 46.67561 47.74612 45.35506 47.74612 44.03448 47.74612 42.96397 46.67561 42.96397 45.35506 42.96397 44.03448 44.03448 42.96397 45.35506 42.96397 46.67561 42.96397 47.74612 44.03448 47.74612 45.35506ZM45.35506 45.35506" fill="#ff0000"/>
<use data-text="P" xlink:href="#font_3_1" transform="matrix(8.966669,0,0,-8.967117,61.85641,136.69889)"/>
<use data-text="2" xlink:href="#font_4_2" transform="matrix(5.97778,0,0,-5.9780786,67.740589,137.69496)"/>
<use data-text="2" xlink:href="#font_4_2" transform="matrix(5.97778,0,0,-5.9780786,71.393009,137.69496)"/>
<path transform="matrix(1.00003,0,0,-1.00008,12.979942,179.49231)" d="M47.74612 22.67752C47.74612 23.99808 46.67561 25.06859 45.35506 25.06859 44.03448 25.06859 42.96397 23.99808 42.96397 22.67752 42.96397 21.35695 44.03448 20.28644 45.35506 20.28644 46.67561 20.28644 47.74612 21.35695 47.74612 22.67752ZM45.35506 22.67752" fill="#ff0000"/>
<use data-text="P" xlink:href="#font_3_1" transform="matrix(8.966669,0,0,-8.967117,61.85641,159.37871)"/>
<use data-text="2" xlink:href="#font_4_2" transform="matrix(5.97778,0,0,-5.9780786,67.740589,160.37479)"/>
<use data-text="1" xlink:href="#font_4_1" transform="matrix(5.97778,0,0,-5.9780786,71.393009,160.37479)"/>
</svg>
