<svg xmlns="http://www.w3.org/2000/svg" xmlns:xlink="http://www.w3.org/1999/xlink" xmlns:inkscape="http://www.inkscape.org/namespaces/inkscape" version="1.1" width="248" height="90" viewBox="0 0 248 90">
<defs>
<path id="font_1_1" d="M.34098817-.23803711C.34098817-.23303223 .33799745-.23002625 .33198548-.22303772 .20298767-.105026248 .1639862 .07498169 .1639862 .24996948 .1639862 .40498353 .19400025 .59298709 .33499146 .72698977 .33898927 .73098757 .34098817 .73399356 .34098817 .7389984 .34098817 .74598696 .33599855 .75 .32899476 .75 .31698609 .75 .22698975 .6779785 .17298889 .568985 .125 .47297669 .100997928 .36997987 .100997928 .25097657 .100997928 .17897034 .10998535 .064971927 .16499329-.053024293 .22399903-.17602539 .31698609-.24902344 .32899476-.24902344 .33599855-.24902344 .34098817-.24502564 .34098817-.23803711Z"/>
<path id="font_2_2" d="M.4039917 .62428286C.4039917 .64328 .3899994 .6612854 .3659973 .6612854 .33999635 .6612854 .31199647 .63827517 .31199647 .60827639 .31199647 .5832825 .33099366 .57128909 .34899903 .57128909 .37998963 .57128909 .4039917 .60028079 .4039917 .62428286M.19999695-.045944215C.1789856-.13096619 .12599182-.18008423 .07598877-.18008423 .054992677-.18008423 .051986696-.17805481 .039993287-.17401123 .05899048-.16696167 .07998657-.14596558 .07998657-.12097168 .07998657-.098968509 .06298828-.08496094 .041992189-.08496094 .01399231-.08496094-.013000488-.10797119-.013000488-.14196778-.013000488-.18508911 .0309906-.20507813 .07699585-.20507813 .14898682-.20507813 .24499512-.15196228 .269989-.052947999L.36299134 .31730653C.36698915 .333313 .36698915 .34832765 .36698915 .34933473 .36698915 .40437318 .32598878 .4423828 .269989 .4423828 .1659851 .4423828 .10699463 .29930116 .10699463 .2882843 .10699463 .27928163 .11399841 .27627564 .12098694 .27627564 .1309967 .27627564 .13198853 .27928163 .13999939 .29829408 .16799927 .3623352 .21598816 .41737367 .2679901 .41737367 .2979889 .41737367 .29899598 .38935853 .29899598 .3713379 .29899598 .37034608 .29899598 .35133363 .29599 .33932496L.19999695-.045944215Z"/>
<path id="font_1_3" d="M.70599368 .22944641C.7200012 .22944641 .7409973 .22944641 .7409973 .25045777 .7409973 .27246095 .7220001 .27246095 .70599368 .27246095H.42099V.5578003C.42099 .573761 .42099 .59277346 .39898683 .59277346 .37799073 .59277346 .37799073 .57177737 .37799073 .5578003V.27246095H.09199524C.07798767 .27246095 .056991579 .27246095 .056991579 .25144959 .056991579 .22944641 .07598877 .22944641 .09199524 .22944641H.37799073V-.056793214C.37799073-.07279968 .37799073-.091796878 .3999939-.091796878 .42099-.091796878 .42099-.07080078 .42099-.056793214V.22944641H.70599368Z"/>
<path id="font_1_4" d="M.3039856 .6392822C.3039856 .6642761 .30299378 .666275 .27799989 .666275 .21598816 .60227969 .12399292 .60227969 .09298706 .60227969V.57128909C.11199951 .57128909 .17298889 .57128909 .22698975 .5972748V.08001709C.22698975 .042999269 .22399903 .0309906 .1309967 .0309906H.09899902V0C.1349945 .0029907227 .22399903 .0029907227 .2649994 .0029907227 .30599977 .0029907227 .3959961 .0029907227 .43199159 0V.0309906H.3999939C.30699159 .0309906 .3039856 .042999269 .3039856 .08001709V.6392822Z"/>
<path id="font_1_2" d="M.2979889 .25097657C.2979889 .3329773 .28599549 .4429779 .23399353 .5539856 .1749878 .6769867 .08198547 .75 .069992069 .75 .05999756 .75 .057998659 .74198916 .057998659 .7389984 .057998659 .73399356 .05999756 .73098757 .066986087 .72398379 .125 .6719818 .23498535 .5359802 .23498535 .25097657 .23498535 .10797119 .20899964-.091033939 .06399536-.22602844 .06199646-.22903443 .057998659-.23303223 .057998659-.23803711 .057998659-.24102783 .05999756-.24902344 .069992069-.24902344 .08198547-.24902344 .17199707-.17703247 .22599793-.06802368 .27398683 .02796936 .2979889 .13098145 .2979889 .25097657Z"/>
<path id="font_3_98" d="M.36999513 .12831116C.36999513 .17330933 .34999085 .20030213 .32798768 .22329712 .2939911 .25628663 .2579956 .26327516 .18399048 .2772827 .1579895 .28227235 .084991458 .29527284 .084991458 .35224916 .084991458 .38424684 .10798645 .426239 .19898987 .426239 .30699159 .426239 .31399537 .34326173 .31599427 .31826783 .31698609 .3062744 .31698609 .3002777 .32998658 .3002777 .34399415 .3002777 .34399415 .30726625 .34399415 .32626344V.4222412C.34399415 .4392395 .34399415 .4482422 .33198548 .4482422 .32699586 .4482422 .32499696 .4482422 .31199647 .43623353 .30999757 .43423463 .30099488 .42523194 .29499818 .4202423 .2639923 .44223023 .23298645 .4482422 .19898987 .4482422 .066986087 .4482422 .033996583 .37524415 .033996583 .32426454 .033996583 .29226686 .04798889 .26628114 .070999149 .24429322 .10499573 .21330261 .14299011 .20629883 .19400025 .19729615 .24499512 .18730164 .2619934 .18431092 .28399659 .16731262 .2939911 .15931702 .31900025 .14031983 .31900025 .10229492 .31900025 .014251709 .21798706 .014251709 .20399475 .014251709 .101989749 .014251709 .07598877 .0993042 .06399536 .15332031 .06098938 .16331482 .05999756 .16931153 .04798889 .16931153 .033996583 .16931153 .033996583 .16131592 .033996583 .14331055V.01524353C.033996583-.0017547608 .033996583-.0107421879 .04598999-.0107421879 .051986696-.0107421879 .052993776-.009750366 .070999149 .009246826 .07499695 .01524353 .085998538 .028259278 .09098816 .03326416 .1329956-.007751465 .1789856-.0107421879 .20399475-.0107421879 .32699586-.0107421879 .36999513 .061279298 .36999513 .12831116Z"/>
<path id="font_3_105" d="M.34199525 .12408447V.18099976H.31399537V.1270752C.31399537 .05319214 .2829895 .01725769 .24699402 .01725769 .17999268 .01725769 .17999268 .1051178 .17999268 .12309265V.3996582H.32499696V.43066407H.17999268V.6142578H.1519928C.15098572 .5304413 .115997318 .42765809 .018997193 .4246521V.3996582H.10598755V.12408447C.10598755 .012252808 .18699646-.0107421879 .23999024-.0107421879 .30699159-.011001587 .34199525 .052993776 .34199525 .12399292V.12408447Z"/>
<path id="font_3_66" d="M.25299073 0V.0309906C.18798828 .0309906 .18399048 .035995485 .18399048 .075042728V.4423828L.039993287 .43066407V.3996582C.10398865 .3996582 .11299133 .3936615 .11299133 .3447113V.07695007C.11299133 .0309906 .101989749 .0309906 .035995485 .0309906V0C.08099365 .0019989014 .101989749 .0029907227 .1459961 .0029907227 .1619873 .0029907227 .20399475 .0029907227 .25299073 0M.19699097 .6028137C.19699097 .63282778 .17298889 .6568146 .14299011 .6568146 .11299133 .6568146 .08898926 .63282778 .08898926 .6028137 .08898926 .57281497 .11299133 .5488281 .14299011 .5488281 .17298889 .5488281 .19699097 .57281497 .19699097 .6028137Z"/>
<path id="font_3_75" d="M.83299258 0V.0309906C.7819977 .03125 .7569885 .03125 .7559967 .0622406V.2539215C.7559967 .34077455 .7559967 .36872865 .72299197 .4056549 .70199587 .43037416 .6619873 .4423828 .6159973 .4423828 .5439911 .4423828 .49499513 .40037538 .46699525 .3473816 .45498658 .40637208 .4149933 .4423828 .33099366 .4423828 .25099183 .4423828 .20199585 .39038087 .18099976 .3443756H.17999268V.4423828L.034988405 .43066407V.3996582C.102996829 .3996582 .11199951 .39266969 .11199951 .34370423V.07695007C.11199951 .0309906 .100997928 .0309906 .034988405 .0309906V0C.08198547 .0019989014 .100997928 .0029907227 .14898682 .0029907227 .19699097 .0029907227 .20999146 .0019989014 .2630005 0V.0309906C.19699097 .0309906 .18598938 .0309906 .18598938 .07695007V.25878907C.18598938 .36732484 .2639923 .41737367 .32398988 .41737367 .3789978 .41737367 .39698792 .37834168 .39698792 .30825807V.077041629C.39698792 .0309906 .38598634 .0309906 .31999208 .0309906V0C.36698915 .0019989014 .38598634 .0029907227 .43399049 .0029907227 .48199464 .0029907227 .49499513 .0019989014 .5479889 0V.0309906C.48199464 .0309906 .47099305 .0309906 .47099305 .077041629V.2592163C.47099305 .36732484 .548996 .41737367 .60899356 .41737367 .6639862 .41737367 .6819916 .37834168 .6819916 .30825807V.077041629C.6819916 .0309906 .67099 .0309906 .6049957 .0309906V0C.6519928 .0019989014 .67099 .0029907227 .71899417 .0029907227 .7669983 .0029907227 .7799988 .0019989014 .83299258 0Z"/>
<path id="font_3_50" d="M.4269867 .11936951C.4269867 .12637329 .42199708 .13237 .41299439 .13237 .40299989 .13237 .3999939 .12536621 .39898683 .12136841 .36499024 .019256592 .27598573 .01725769 .26098634 .01725769 .21299744 .01725769 .17199707 .044281007 .14898682 .078323367 .115997318 .12736511 .114990238 .18743897 .114990238 .22949219H.3999939C.42199708 .22949219 .4269867 .22949219 .4269867 .25048829 .4269867 .35333253 .37098695 .4482422 .24299622 .4482422 .12298584 .4482422 .0289917 .3443451 .0289917 .22047425 .0289917 .08932495 .13398743-.0107421879 .2559967-.0107421879 .37799073-.0107421879 .4269867 .096343997 .4269867 .11936951M.35899354 .253479H.115997318C.125 .40725709 .21499634 .42323304 .24299622 .42323304 .2979889 .42323304 .35798646 .38130189 .35899354 .253479Z"/>
<path id="font_3_72" d="M.26098634 0V.0309906C.19499207 .0309906 .18399048 .0309906 .18399048 .07701111V.69433596L.035995485 .6826172V.6516113C.10398865 .6516113 .11299133 .64460757 .11299133 .5956421V.07696533C.11299133 .0309906 .101989749 .0309906 .035995485 .0309906V0C.08299255 .0019989014 .101989749 .0029907227 .147995 .0029907227 .19499207 .0029907227 .21199036 .0019989014 .26098634 0Z"/>
<path id="font_3_77" d="M.5469971 0V.0309906C.49598695 .03125 .47099305 .03125 .46998597 .0622406V.25431825C.46998597 .3373413 .46998597 .36636354 .44198609 .4013672 .4189911 .42938233 .3809967 .4423828 .33099366 .4423828 .23799134 .4423828 .19499207 .37335206 .18099976 .34535218H.17999268V.4423828L.034988405 .43066407V.3996582C.102996829 .3996582 .11199951 .39266969 .11199951 .34370423V.07695007C.11199951 .0309906 .100997928 .0309906 .034988405 .0309906V0C.08198547 .0019989014 .100997928 .0029907227 .14898682 .0029907227 .19699097 .0029907227 .20999146 .0019989014 .2630005 0V.0309906C.19699097 .0309906 .18598938 .0309906 .18598938 .07695007V.25878907C.18598938 .36532594 .26098634 .41737367 .32398988 .41737367 .3829956 .41737367 .3959961 .3683319 .3959961 .30825807V.077041629C.3959961 .0309906 .3849945 .0309906 .31900025 .0309906V0C.3659973 .0019989014 .3849945 .0029907227 .43299867 .0029907227 .48098756 .0029907227 .49398805 .0019989014 .5469971 0Z"/>
<path id="font_3_63" d="M.5469971 0V.0309906C.49598695 .03125 .47099305 .03125 .46998597 .0622406V.25431825C.46998597 .3373413 .46998597 .36636354 .44198609 .4013672 .4189911 .42938233 .3809967 .4423828 .33099366 .4423828 .2639923 .4423828 .21499634 .40737916 .18399048 .35134889H.18299866V.69433596L.034988405 .6826172V.6516113C.102996829 .6516113 .11199951 .64463809 .11199951 .59580996V.077041629C.11199951 .0309906 .100997928 .0309906 .034988405 .0309906V0C.08198547 .0019989014 .100997928 .0029907227 .14898682 .0029907227 .19699097 .0029907227 .20999146 .0019989014 .2630005 0V.0309906C.19699097 .0309906 .18598938 .0309906 .18598938 .077041629V.2592163C.18598938 .36532594 .26098634 .41737367 .32398988 .41737367 .3829956 .41737367 .3959961 .3683319 .3959961 .30825807V.077041629C.3959961 .0309906 .3849945 .0309906 .31900025 .0309906V0C.3659973 .0019989014 .3849945 .0029907227 .43299867 .0029907227 .48098756 .0029907227 .49398805 .0019989014 .5469971 0Z"/>
<path id="font_4_1" d="M.6749878 .22944641C.69299319 .22944641 .71199038 .22944641 .71199038 .25144959 .71199038 .27246095 .69200137 .27246095 .6749878 .27246095H.12298584C.10598755 .27246095 .085998538 .27246095 .085998538 .25144959 .085998538 .22944641 .10499573 .22944641 .12298584 .22944641H.6749878Z"/>
<path id="font_2_4" d="M.4869995 .32635499C.49299623 .35235597 .5049896 .39837647 .5049896 .40237428 .5049896 .41537477 .49598695 .43138124 .47399903 .43138124 .45999146 .43138124 .44499208 .42237855 .43798829 .41036988 .43299867 .40037538 .36499024 .12928772 .35899354 .09628296 .33799745 .060272218 .2979889 .014251709 .24299622 .014251709 .18099976 .014251709 .18099976 .07727051 .18099976 .09628296 .18099976 .14129639 .19400025 .19030762 .23699951 .30233766 .24499512 .3253479 .25099183 .33935548 .25099183 .35835267 .25099183 .40737916 .21398926 .4423828 .16499329 .4423828 .068984989 .4423828 .0289917 .30033876 .0289917 .28833009 .0289917 .2793274 .035995485 .27633668 .042999269 .27633668 .053985597 .27633668 .054992677 .28233338 .05899048 .29533387 .07998657 .36735536 .11898804 .41737367 .1619873 .41737367 .18299866 .41737367 .18598938 .40237428 .18598938 .3843689 .18598938 .36735536 .18199158 .34934999 .17298889 .3253479 .12599182 .2013092 .11299133 .15930176 .11299133 .11128235 .11299133 .00024414063 .20298767-.0107421879 .23999024-.0107421879 .29699708-.0107421879 .33799745 .024246216 .3619995 .055267335 .3809967-.0107421879 .44699098-.0107421879 .45298768-.0107421879 .48199464-.0107421879 .5069885 .003250122 .5279999 .042251588 .54599 .07527161 .5609894 .13928223 .5609894 .14329529 .5609894 .14828491 .55799868 .1552887 .5479889 .1552887 .5359955 .1552887 .5349884 .15029907 .5309906 .13128662 .5109863 .052261354 .48999024 .014251709 .45599366 .014251709 .43199159 .014251709 .4249878 .03526306 .4249878 .060272218 .4249878 .07926941 .42999269 .09927368 .43899537 .1342926L.46398927 .23731995 .4869995 .32635499Z"/>
<path id="font_5_2" d="M.34799195 .6244507C.34799195 .64852908 .32998658 .66452029 .30699159 .66452029 .27999879 .66452029 .25099183 .638504 .25099183 .60939028 .25099183 .5843353 .2689972 .56933596 .29100038 .56933596 .32299806 .56933596 .34799195 .59936526 .34799195 .6244507M.28799439 .27534486C.2919922 .28533937 .30099488 .3093567 .30499269 .31835938 .30799867 .32736207 .31199647 .33737184 .31199647 .35437013 .31199647 .4104004 .2619934 .44140626 .21199036 .44140626 .10998535 .44140626 .06098938 .3093567 .06098938 .28733827 .06098938 .28234864 .06498718 .27334596 .07899475 .27334596 .09298706 .27334596 .09599304 .27934266 .09899902 .28834535 .1269989 .38539125 .17999268 .4084015 .20799256 .4084015 .22799683 .4084015 .23498535 .395401 .23498535 .37239076 .23498535 .35237123 .22898865 .33737184 .22698975 .33036805L.1749878 .20230103C.16299439 .17329407 .16299439 .17129517 .1499939 .13728333 .13699341 .10726929 .13198853 .09425354 .13198853 .07725525 .13198853 .026229859 .17799378-.009765625 .23298645-.009765625 .33399964-.009765625 .38398744 .12226868 .38398744 .14428711 .38398744 .14628601 .3829956 .15829468 .36499024 .15829468 .35099793 .15829468 .34999085 .1532898 .34399415 .13427735 .32798768 .08325195 .2869873 .023223877 .23599243 .023223877 .21798706 .023223877 .20899964 .035232545 .20899964 .059249879 .20899964 .07925415 .21499634 .09425354 .22799683 .12527466L.28799439 .27534486Z"/>
<path id="font_6_1" d="M.79599 .22436524C.81199648 .22436524 .83699038 .22436524 .83699038 .2503662 .83699038 .2763672 .81199648 .2763672 .79599 .2763672H.1659851C.1499939 .2763672 .125 .2763672 .125 .2503662 .125 .22436524 .1499939 .22436524 .1659851 .22436524H.79599Z"/>
<path id="font_7_2" d="M.35899354 .6349335C.35899354 .66503909 .35499574 .66503909 .32499696 .66503909 .25898744 .60058596 .15699768 .60058596 .12098694 .60058596V.5615845C.14698792 .5615845 .21299744 .5615845 .272995 .58958438V.08496094C.272995 .051986696 .272995 .038986207 .16999817 .038986207H.1269989V0C.18199158 .0039978029 .2599945 .0039978029 .31599427 .0039978029 .37199403 .0039978029 .44999696 .0039978029 .5049896 0V.038986207H.46199037C.35899354 .038986207 .35899354 .051986696 .35899354 .08496094V.6349335Z"/>
<path id="font_5_1" d="M.22999573 .01399231C.22999573-.0811615 .17999268-.13627625 .15499878-.15830994 .14498902-.16833496 .14199829-.17033386 .14199829-.17634583 .14199829-.18534851 .15098572-.19433594 .15899658-.19433594 .17298889-.19433594 .2630005-.114227298 .2630005 .008987427 .2630005 .07199097 .23699951 .12098694 .18899536 .12098694 .1499939 .12098694 .1289978 .08999634 .1289978 .06098938 .1289978 .0309906 .1499939 0 .18998719 0 .20498657 0 .21899414 .0039978029 .22999573 .01399231Z"/>
<path id="font_5_3" d="M.46398927 .6244507C.46398927 .65452578 .43998719 .66452029 .42399598 .66452029 .3919983 .66452029 .36698915 .6334839 .36698915 .60939028 .36698915 .58833315 .3829956 .56933596 .4079895 .56933596 .43399049 .56933596 .46398927 .5943451 .46398927 .6244507M.25099183-.04499817C.23199463-.12005615 .17298889-.17111206 .114990238-.17111206 .11199951-.17111206 .083999637-.17010498 .083999637-.16610718 .083999637-.1651001 .08699036-.1631012 .08699036-.16209412 .101989749-.15008545 .10899353-.13407898 .10899353-.11906433 .10899353-.08703613 .08299255-.08003235 .068984989-.08003235 .041992189-.08003235 .011993408-.10205078 .011993408-.13908386 .011993408-.19210816 .07499695-.20410156 .115997318-.20410156 .18299866-.20410156 .30299378-.16610718 .33299256-.04600525L.4229889 .3123169C.4249878 .32232667 .42799378 .33132936 .42799378 .34535218 .42799378 .4013977 .37799073 .44140626 .31399537 .44140626 .20098877 .44140626 .1309967 .30630494 .1309967 .28729249 .1309967 .28129579 .1349945 .2732849 .14898682 .2732849 .16299439 .2732849 .1639862 .2772827 .17098999 .29130555 .19999695 .35635377 .2559967 .4084015 .31098939 .4084015 .34098817 .4084015 .34799195 .38337709 .34799195 .35835267 .34799195 .34535218 .34599305 .33132936 .34498597 .32833863L.25099183-.04499817Z"/>
<path id="font_7_1" d="M.49299623 .22436524H.81599429C.8299866 .22436524 .8549957 .22436524 .8549957 .2503662 .8549957 .2763672 .8299866 .2763672 .81599429 .2763672H.49299623V.60014346C.49299623 .61413577 .49299623 .63912966 .46699525 .63912966 .44099427 .63912966 .44099427 .61413577 .44099427 .60014346V.2763672H.117996219C.10398865 .2763672 .07899475 .2763672 .07899475 .2503662 .07899475 .22436524 .10398865 .22436524 .117996219 .22436524H.44099427V-.10014343C.44099427-.11416626 .44099427-.13917542 .46699525-.13917542 .49299623-.13917542 .49299623-.11416626 .49299623-.10014343V.22436524Z"/>
<path id="font_2_3" d="M.2869873 .6603241C.29100038 .67433169 .29100038 .67633059 .29100038 .68032839 .29100038 .68933108 .2849884 .69433596 .27598573 .69433596 .2619934 .69433596 .17399597 .6863251 .1539917 .6843262 .14399719 .68333438 .1329956 .6823273 .1329956 .665329 .1329956 .6523285 .14399719 .6523285 .1599884 .6523285 .20698548 .6523285 .20698548 .6453247 .20698548 .6363373 .20698548 .6323395 .20698548 .6303406 .20199585 .6123352L.05899048 .037261964C.054992677 .023254395 .054992677 .021255494 .054992677 .018249512 .054992677 .002243042 .067993167-.0107421879 .085998538-.0107421879 .11898804-.0107421879 .12599182 .018249512 .1309967 .038253786L.17799378 .22732544C.24598694 .22132874 .29699708 .19432068 .29699708 .14430237 .29699708 .1382904 .29699708 .1342926 .2939911 .11929321 .29299928 .11528015 .2899933 .10128784 .2899933 .090270999 .2899933 .03125 .33099366-.0107421879 .38598634-.0107421879 .42399598-.0107421879 .44799806 .012252808 .46598817 .041259767 .4909973 .07926941 .5049896 .13929749 .5049896 .14329529 .5049896 .14830017 .5019989 .15530396 .49198915 .15530396 .48098756 .15530396 .47898866 .15029907 .47399903 .1322937 .46099855 .08126831 .43598939 .014251709 .3889923 .014251709 .3600006 .014251709 .35699464 .040252687 .35699464 .06227112 .35699464 .08728027 .36299134 .11328125 .3639984 .11528015 .3659973 .121292117 .36799623 .13328552 .36799623 .14529419 .36799623 .21531677 .29499818 .24232483 .21798706 .25134278 .24798584 .27033998 .269989 .29135133 .3019867 .32336427 .35299684 .37435914 .394989 .41737367 .44799806 .41737367 .45999146 .41737367 .47299195 .41436769 .48098756 .405365 .43598939 .4013672 .4249878 .36436463 .4249878 .35035707 .4249878 .33135987 .43899537 .31436158 .46398927 .31436158 .4869995 .31436158 .5189972 .33236695 .5189972 .37635804 .5189972 .4093628 .49499513 .4423828 .44799806 .4423828 .3869934 .4423828 .33799745 .39335633 .29599 .35035707 .24798584 .30336 .22399903 .27934266 .18699646 .26333619L.2869873 .6603241Z"/>
<path id="font_2_1" d="M.2869873 .6603241C.29100038 .67433169 .29100038 .67633059 .29100038 .68032839 .29100038 .68933108 .2849884 .69433596 .27598573 .69433596 .2619934 .69433596 .17399597 .6863251 .1539917 .6843262 .14399719 .68333438 .1329956 .6823273 .1329956 .665329 .1329956 .6523285 .14399719 .6523285 .1599884 .6523285 .20698548 .6523285 .20698548 .6453247 .20698548 .6363373 .20698548 .6323395 .20698548 .6303406 .20199585 .6123352L.05899048 .037261964C.054992677 .023254395 .054992677 .021255494 .054992677 .018249512 .054992677 .002243042 .067993167-.0107421879 .085998538-.0107421879 .102996829-.0107421879 .116989139-.00074768069 .12399292 .013244629 .12599182 .018249512 .1349945 .054260255 .13999939 .07527161L.16299439 .16429138C.1659851 .17930603 .17599488 .21731568 .1789856 .23231507L.19099427 .27633668C.19599915 .29934693 .25299073 .41737367 .36099244 .41737367 .4149933 .41737367 .4149933 .36436463 .4149933 .34735108 .4149933 .28633119 .36799623 .16429138 .35699464 .13328552 .34498597 .10227966 .34098817 .0922699 .34098817 .073272708 .34098817 .019256592 .38198854-.0107421879 .4269867-.0107421879 .522995-.0107421879 .56199648 .1322937 .56199648 .14329529 .56199648 .14828491 .5589905 .1552887 .548996 .1552887 .5379944 .1552887 .5369873 .15029907 .5329895 .13728333 .5079956 .052261354 .46598817 .014251709 .42999269 .014251709 .4229889 .014251709 .40499879 .014251709 .40499879 .04626465 .40499879 .0712738 .4149933 .09727478 .4229889 .119277957 .44299317 .17030335 .48298646 .27633668 .48298646 .33235169 .48298646 .42137147 .4169922 .4423828 .3639984 .4423828 .3039856 .4423828 .25299073 .41438294 .21299744 .36535646L.2869873 .6603241Z"/>
</defs>
<path transform="matrix(1,0,0,-1,93.703,78.491)" stroke-width=".3985" stroke-linecap="butt" stroke-miterlimit="10" stroke-linejoin="miter" fill="none" stroke="#000000" d="M-17.00801 68.03217H153.07236"/>
<path transform="matrix(1,0,0,-1,93.703,78.491)" stroke-width=".3985" stroke-linecap="butt" stroke-miterlimit="10" stroke-linejoin="miter" fill="none" stroke="#000000" d="M-17.00801 34.01608H153.07236"/>
<path transform="matrix(1,0,0,-1,93.703,78.491)" stroke-width=".3985" stroke-linecap="butt" stroke-miterlimit="10" stroke-linejoin="miter" fill="none" stroke="#000000" d="M-17.00801 0H153.07236"/>
<use data-text="(" xlink:href="#font_1_1" transform="matrix(8.9664,0,0,-8.9664,.21600342,12.699997)"/>
<use data-text="j" xlink:href="#font_2_2" transform="matrix(8.9664,0,0,-8.9664,3.800003,12.699997)"/>
<use data-text="+" xlink:href="#font_1_3" transform="matrix(8.9664,0,0,-8.9664,10.128998,12.699997)"/>
<use data-text="1" xlink:href="#font_1_4" transform="matrix(8.9664,0,0,-8.9664,19.337494,12.699997)"/>
<use data-text=")" xlink:href="#font_1_2" transform="matrix(8.9664,0,0,-8.9664,23.937256,12.699997)"/>
<use data-text="s" xlink:href="#font_3_98" transform="matrix(8.9664,0,0,-8.9664,27.535996,12.699997)"/>
<use data-text="t" xlink:href="#font_3_105" transform="matrix(8.9664,0,0,-8.9664,31.167389,12.699997)"/>
<use data-text="t" xlink:href="#font_3_105" transform="matrix(8.9664,0,0,-8.9664,37.820466,12.699997)"/>
<use data-text="i" xlink:href="#font_3_66" transform="matrix(8.9664,0,0,-8.9664,41.40703,12.699997)"/>
<use data-text="m" xlink:href="#font_3_75" transform="matrix(8.9664,0,0,-8.9664,43.97142,12.699997)"/>
<use data-text="e" xlink:href="#font_3_50" transform="matrix(8.9664,0,0,-8.9664,51.646654,12.699997)"/>
<use data-text="l" xlink:href="#font_3_72" transform="matrix(8.9664,0,0,-8.9664,58.819765,12.699997)"/>
<use data-text="i" xlink:href="#font_3_66" transform="matrix(8.9664,0,0,-8.9664,61.384157,12.699997)"/>
<use data-text="n" xlink:href="#font_3_77" transform="matrix(8.9664,0,0,-8.9664,63.948549,12.699997)"/>
<use data-text="e" xlink:href="#font_3_50" transform="matrix(8.9664,0,0,-8.9664,69.06836,12.699997)"/>
<use data-text="j" xlink:href="#font_2_2" transform="matrix(8.9664,0,0,-8.9664,21.766007,46.714998)"/>
<use data-text="t" xlink:href="#font_3_105" transform="matrix(8.9664,0,0,-8.9664,26.047013,46.714998)"/>
<use data-text="h" xlink:href="#font_3_63" transform="matrix(8.9664,0,0,-8.9664,29.633576,46.714998)"/>
<use data-text="t" xlink:href="#font_3_105" transform="matrix(8.9664,0,0,-8.9664,37.828859,46.714998)"/>
<use data-text="i" xlink:href="#font_3_66" transform="matrix(8.9664,0,0,-8.9664,41.41542,46.714998)"/>
<use data-text="m" xlink:href="#font_3_75" transform="matrix(8.9664,0,0,-8.9664,43.979814,46.714998)"/>
<use data-text="e" xlink:href="#font_3_50" transform="matrix(8.9664,0,0,-8.9664,51.655046,46.714998)"/>
<use data-text="l" xlink:href="#font_3_72" transform="matrix(8.9664,0,0,-8.9664,58.828157,46.714998)"/>
<use data-text="i" xlink:href="#font_3_66" transform="matrix(8.9664,0,0,-8.9664,61.392549,46.714998)"/>
<use data-text="n" xlink:href="#font_3_77" transform="matrix(8.9664,0,0,-8.9664,63.95694,46.714998)"/>
<use data-text="e" xlink:href="#font_3_50" transform="matrix(8.9664,0,0,-8.9664,69.07675,46.714998)"/>
<use data-text="(" xlink:href="#font_1_1" transform="matrix(8.9664,0,0,-8.9664,.21600342,80.733)"/>
<use data-text="j" xlink:href="#font_2_2" transform="matrix(8.9664,0,0,-8.9664,3.800003,80.733)"/>
<use data-text="&#x2212;" xlink:href="#font_4_1" transform="matrix(8.9664,0,0,-8.9664,10.128998,80.733)"/>
<use data-text="1" xlink:href="#font_1_4" transform="matrix(8.9664,0,0,-8.9664,19.343995,80.733)"/>
<use data-text=")" xlink:href="#font_1_2" transform="matrix(8.9664,0,0,-8.9664,23.943757,80.733)"/>
<use data-text="s" xlink:href="#font_3_98" transform="matrix(8.9664,0,0,-8.9664,27.535996,80.733)"/>
<use data-text="t" xlink:href="#font_3_105" transform="matrix(8.9664,0,0,-8.9664,31.167389,80.733)"/>
<use data-text="t" xlink:href="#font_3_105" transform="matrix(8.9664,0,0,-8.9664,37.820466,80.733)"/>
<use data-text="i" xlink:href="#font_3_66" transform="matrix(8.9664,0,0,-8.9664,41.40703,80.733)"/>
<use data-text="m" xlink:href="#font_3_75" transform="matrix(8.9664,0,0,-8.9664,43.97142,80.733)"/>
<use data-text="e" xlink:href="#font_3_50" transform="matrix(8.9664,0,0,-8.9664,51.646654,80.733)"/>
<use data-text="l" xlink:href="#font_3_72" transform="matrix(8.9664,0,0,-8.9664,58.819765,80.733)"/>
<use data-text="i" xlink:href="#font_3_66" transform="matrix(8.9664,0,0,-8.9664,61.384157,80.733)"/>
<use data-text="n" xlink:href="#font_3_77" transform="matrix(8.9664,0,0,-8.9664,63.948549,80.733)"/>
<use data-text="e" xlink:href="#font_3_50" transform="matrix(8.9664,0,0,-8.9664,69.06836,80.733)"/>
<path transform="matrix(1,0,0,-1,93.703,78.491)" d="M36.40714 34.01608C36.40714 35.33662 35.33662 36.40714 34.01608 36.40714 32.69553 36.40714 31.62502 35.33662 31.62502 34.01608 31.62502 32.69553 32.69553 31.62502 34.01608 31.62502 35.33662 31.62502 36.40714 32.69553 36.40714 34.01608ZM34.01608 34.01608"/>
<use data-text="u" xlink:href="#font_2_4" transform="matrix(8.9664,0,0,-8.9664,115.94501,38.796998)"/>
<use data-text="i" xlink:href="#font_5_2" transform="matrix(5.9776,0,0,-5.9776,121.248,39.793)"/>
<use data-text="&#x2212;" xlink:href="#font_6_1" transform="matrix(5.9776,0,0,-5.9776,123.912,39.793)"/>
<use data-text="1" xlink:href="#font_7_2" transform="matrix(5.9776,0,0,-5.9776,129.668,39.793)"/>
<use data-text="," xlink:href="#font_5_1" transform="matrix(5.9776,0,0,-5.9776,133.321,39.793)"/>
<use data-text="j" xlink:href="#font_5_3" transform="matrix(5.9776,0,0,-5.9776,135.58652,39.793)"/>
<path transform="matrix(1,0,0,-1,93.703,78.491)" d="M87.43126 34.01608C87.43126 35.33662 86.36075 36.40714 85.04019 36.40714 83.71965 36.40714 82.64914 35.33662 82.64914 34.01608 82.64914 32.69553 83.71965 31.62502 85.04019 31.62502 86.36075 31.62502 87.43126 32.69553 87.43126 34.01608ZM85.04019 34.01608"/>
<use data-text="u" xlink:href="#font_2_4" transform="matrix(8.9664,0,0,-8.9664,171.67401,51.854997)"/>
<use data-text="i" xlink:href="#font_5_2" transform="matrix(5.9776,0,0,-5.9776,176.97699,52.850999)"/>
<use data-text="," xlink:href="#font_5_1" transform="matrix(5.9776,0,0,-5.9776,179.63703,52.850999)"/>
<use data-text="j" xlink:href="#font_5_3" transform="matrix(5.9776,0,0,-5.9776,181.90256,52.850999)"/>
<path transform="matrix(1,0,0,-1,93.703,78.491)" d="M138.45539 34.01608C138.45539 35.33662 137.38488 36.40714 136.06433 36.40714 134.74378 36.40714 133.67327 35.33662 133.67327 34.01608 133.67327 32.69553 134.74378 31.62502 136.06433 31.62502 137.38488 31.62502 138.45539 32.69553 138.45539 34.01608ZM136.06433 34.01608"/>
<use data-text="u" xlink:href="#font_2_4" transform="matrix(8.9664,0,0,-8.9664,218.076,51.854997)"/>
<use data-text="i" xlink:href="#font_5_2" transform="matrix(5.9776,0,0,-5.9776,223.379,52.850999)"/>
<use data-text="+" xlink:href="#font_7_1" transform="matrix(5.9776,0,0,-5.9776,226.043,52.850999)"/>
<use data-text="1" xlink:href="#font_7_2" transform="matrix(5.9776,0,0,-5.9776,231.63205,52.850999)"/>
<use data-text="," xlink:href="#font_5_1" transform="matrix(5.9776,0,0,-5.9776,235.286,52.850999)"/>
<use data-text="j" xlink:href="#font_5_3" transform="matrix(5.9776,0,0,-5.9776,237.5515,52.850999)"/>
<path transform="matrix(1,0,0,-1,93.703,78.491)" d="M87.43126 68.03217C87.43126 69.3527 86.36075 70.42322 85.04019 70.42322 83.71965 70.42322 82.64914 69.3527 82.64914 68.03217 82.64914 66.71161 83.71965 65.6411 85.04019 65.6411 86.36075 65.6411 87.43126 66.71161 87.43126 68.03217ZM85.04019 68.03217" fill="#ff0000"/>
<use data-text="u" xlink:href="#font_2_4" transform="matrix(8.9664,0,0,-8.9664,167.052,4.779999)" fill="#ff0000"/>
<use data-text="i" xlink:href="#font_5_2" transform="matrix(5.9776,0,0,-5.9776,172.355,5.776001)" fill="#ff0000"/>
<use data-text="," xlink:href="#font_5_1" transform="matrix(5.9776,0,0,-5.9776,175.01503,5.776001)" fill="#ff0000"/>
<use data-text="j" xlink:href="#font_5_3" transform="matrix(5.9776,0,0,-5.9776,177.28055,5.776001)" fill="#ff0000"/>
<use data-text="+" xlink:href="#font_7_1" transform="matrix(5.9776,0,0,-5.9776,180.693,5.776001)" fill="#ff0000"/>
<use data-text="1" xlink:href="#font_7_2" transform="matrix(5.9776,0,0,-5.9776,186.28205,5.776001)" fill="#ff0000"/>
<path transform="matrix(1,0,0,-1,93.703,78.491)" d="M87.43126 0C87.43126 1.32054 86.36075 2.39105 85.04019 2.39105 83.71965 2.39105 82.64914 1.32054 82.64914 0 82.64914-1.32054 83.71965-2.39105 85.04019-2.39105 86.36075-2.39105 87.43126-1.32054 87.43126 0ZM85.04019 0"/>
<use data-text="u" xlink:href="#font_2_4" transform="matrix(8.9664,0,0,-8.9664,166.969,85.871)"/>
<use data-text="i" xlink:href="#font_5_2" transform="matrix(5.9776,0,0,-5.9776,172.272,86.867008)"/>
<use data-text="," xlink:href="#font_5_1" transform="matrix(5.9776,0,0,-5.9776,174.93204,86.867008)"/>
<use data-text="j" xlink:href="#font_5_3" transform="matrix(5.9776,0,0,-5.9776,177.19754,86.867008)"/>
<use data-text="&#x2212;" xlink:href="#font_6_1" transform="matrix(5.9776,0,0,-5.9776,180.60999,86.867008)"/>
<use data-text="1" xlink:href="#font_7_2" transform="matrix(5.9776,0,0,-5.9776,186.366,86.867008)"/>
<path transform="matrix(1,0,0,-1,93.703,78.491)" stroke-width=".3985" stroke-linecap="butt" stroke-dasharray="2.98883,2.98883" stroke-miterlimit="10" stroke-linejoin="miter" fill="none" stroke="#000000" d="M85.04019 68.03217V0"/>
<path transform="matrix(1,0,0,-1,93.703,78.491)" stroke-width=".3985" stroke-linecap="butt" stroke-dasharray="2.98883,2.98883" stroke-miterlimit="10" stroke-linejoin="miter" fill="none" stroke="#000000" d="M34.01608 34.01608V0"/>
<path transform="matrix(1,0,0,-1,93.703,78.491)" stroke-width=".3985" stroke-linecap="butt" stroke-miterlimit="10" stroke-linejoin="miter" fill="none" stroke="#000000" d="M34.01608 0C32.52165 .74718 31.52539 2.49069 31.52539 4.98138V12.02664C31.52539 14.51733 30.52913 16.26085 29.0347 17.00803 30.52913 17.7552 31.52539 19.49872 31.52539 21.98941V29.0347C31.52539 31.52539 32.52165 33.2689 34.01608 34.01608"/>
<use data-text="k" xlink:href="#font_2_3" transform="matrix(0,-8.9664,-8.9664,-0,119.87399,64.013)"/>
<path transform="matrix(1,0,0,-1,93.703,78.491)" stroke-width=".3985" stroke-linecap="butt" stroke-miterlimit="10" stroke-linejoin="miter" fill="none" stroke="#000000" d="M34.01608 0C34.76326 1.49442 36.50677 2.49069 38.99747 2.49069H54.54674C57.03743 2.49069 58.78094 3.48695 59.52812 4.98138 60.2753 3.48695 62.01881 2.49069 64.5095 2.49069H80.0588C82.5495 2.49069 84.29301 1.49442 85.04019 0"/>
<use data-text="h" xlink:href="#font_2_1" transform="matrix(8.9664,0,0,-8.9664,150.576,71.642)"/>
</svg>
