<svg xmlns="http://www.w3.org/2000/svg" xmlns:xlink="http://www.w3.org/1999/xlink" xmlns:inkscape="http://www.inkscape.org/namespaces/inkscape" version="1.1" width="244" height="40" viewBox="0 0 244 40">
<defs>
<path id="font_1_4" d="M.34999085 .056259157C.36099244 .015258789 .3959961-.0107421879 .43899537-.0107421879 .47399903-.0107421879 .49699403 .012252808 .5130005 .044265748 .5299988 .08027649 .54299929 .14129639 .54299929 .14329529 .54299929 .1532898 .5339966 .1532898 .5309906 .1532898 .5209961 .1532898 .519989 .14929199 .5169983 .13528443 .5029907 .07926941 .48399354 .011245728 .44198609 .011245728 .42099 .011245728 .41099549 .024261475 .41099549 .057266237 .41099549 .07926941 .4229889 .12628174 .43099977 .16130066L.45899964 .2693329C.46199037 .28433229 .47200013 .32234193 .47599793 .3373413 .48098756 .36035157 .4909973 .3983612 .4909973 .40437318 .4909973 .42237855 .47698976 .43138124 .46199037 .43138124 .45700074 .43138124 .43099977 .43037416 .4229889 .3963623 .4039917 .323349 .3600006 .14828491 .34799195 .09527588 .34700013 .091278079 .30699159 .011245728 .23399353 .011245728 .18199158 .011245728 .17199707 .056259157 .17199707 .09327698 .17199707 .14929199 .19999695 .22831726 .22599793 .29733277 .23799134 .3273468 .24299622 .34135438 .24299622 .36035157 .24299622 .405365 .21099854 .4423828 .16099549 .4423828 .06599426 .4423828 .0289917 .29733277 .0289917 .28833009 .0289917 .27833558 .038986207 .27833558 .040985109 .27833558 .050994874 .27833558 .051986696 .28033448 .056991579 .29634095 .08198547 .38336183 .11999512 .42037965 .1579895 .42037965 .16699219 .42037965 .18299866 .41937257 .18299866 .38735963 .18299866 .36335755 .17199707 .3343506 .1659851 .31933595 .1289978 .2203064 .10798645 .15829468 .10798645 .10928345 .10798645 .014251709 .1769867-.0107421879 .23098755-.0107421879 .29699708-.0107421879 .33299256 .03425598 .34999085 .056259157Z"/>
<path id="font_2_1" d="M.33099366-.2400055C.33099366-.23701477 .33099366-.23500061 .31399537-.21800232 .18899536-.0920105 .15699768 .09700012 .15699768 .25 .15699768 .42399598 .19499207 .59799197 .31799317 .72299197 .33099366 .73498538 .33099366 .7369995 .33099366 .73999026 .33099366 .746994 .32699586 .75 .32099916 .75 .31098939 .75 .22099304 .6819916 .1619873 .5549927 .11099243 .44499208 .09899902 .33399964 .09899902 .25 .09899902 .17199707 .10998535 .050994874 .16499329-.06201172 .22499085-.18501282 .31098939-.25 .32099916-.25 .32699586-.25 .33099366-.24700928 .33099366-.2400055Z"/>
<path id="font_2_3" d="M.45999146 .31976319C.45999146 .39982606 .45498658 .47988893 .41999818 .5539398 .37399293 .65000918 .2919922 .6660156 .25 .6660156 .18998719 .6660156 .116989139 .64001467 .07598877 .54693606 .04399109 .47789 .038986207 .39982606 .038986207 .31976319 .038986207 .24472046 .042999269 .15464783 .083999637 .07859802 .1269989-.0024719239 .19999695-.022460938 .24899292-.022460938 .30299378-.022460938 .3789978-.0014648438 .4229889 .09359741 .45498658 .16265869 .45999146 .2407074 .45999146 .31976319M.24899292-.00047302247C.20999146-.00047302247 .15098572 .024551392 .1329956 .12062073 .12199402 .18066406 .12199402 .2727356 .12199402 .3317871 .12199402 .39582826 .12199402 .46188355 .12998963 .5159149 .14898682 .63500979 .22399903 .64401248 .24899292 .64401248 .28199769 .64401248 .34799195 .6259918 .36698915 .52693179 .3769989 .47088624 .3769989 .39482118 .3769989 .3317871 .3769989 .25672914 .3769989 .18867493 .3659973 .12461853 .35099793 .029556275 .2939911-.00047302247 .24899292-.00047302247Z"/>
<path id="font_1_1" d="M.20298767 .0009918213C.20298767 .066986087 .17799378 .10598755 .13899231 .10598755 .10598755 .10598755 .085998538 .08099365 .085998538 .052993776 .085998538 .025985718 .10598755 0 .13899231 0 .15098572 0 .1639862 .0039978029 .17399597 .0129852299 .1769867 .01499939 .17799378 .015991211 .1789856 .015991211 .17999268 .015991211 .18099976 .01499939 .18099976 .0009918213 .18099976-.07316589 .1459961-.13328552 .11299133-.16635132 .101989749-.17736817 .101989749-.17936707 .101989749-.18237305 .101989749-.18936157 .10699463-.19335938 .11199951-.19335938 .12298584-.19335938 .20298767-.116256717 .20298767 .0009918213Z"/>
<path id="font_1_3" d="M.20599365 .3996582H.2999878C.31999208 .3996582 .32998658 .3996582 .32998658 .41966249 .32998658 .43066407 .31999208 .43066407 .3019867 .43066407H.21398926C.25 .5724945 .25498963 .59246829 .25498963 .59846499 .25498963 .61546328 .24299622 .62545779 .22599793 .62545779 .22299195 .62545779 .19499207 .62446597 .18598938 .58947756L.14698792 .43066407H.052993776C.032989503 .43066407 .022994996 .43066407 .022994996 .4116516 .022994996 .3996582 .0309906 .3996582 .050994874 .3996582H.13899231C.066986087 .11608887 .06298828 .099121097 .06298828 .08114624 .06298828 .02722168 .100997928-.0107421879 .15499878-.0107421879 .25698854-.0107421879 .31399537 .13505554 .31399537 .14305115 .31399537 .1530304 .30599977 .1530304 .3019867 .1530304 .29299928 .1530304 .2919922 .15003968 .2869873 .13905335 .24398804 .035217287 .19099427 .011245728 .15699768 .011245728 .13598633 .011245728 .12599182 .024230957 .12599182 .057174684 .12599182 .08114624 .12799073 .088134769 .13198853 .10510254L.20599365 .3996582Z"/>
<path id="font_2_2" d="M.2889862 .25C.2889862 .32798768 .27799989 .44898988 .22299195 .56199648 .16299439 .68499758 .07699585 .75 .066986087 .75 .06098938 .75 .056991579 .74598696 .056991579 .73999026 .056991579 .7369995 .056991579 .73498538 .07598877 .71699526 .17399597 .6179962 .23098755 .45899964 .23098755 .25 .23098755 .07899475 .19400025-.09700012 .069992069-.2230072 .056991579-.23500061 .056991579-.23701477 .056991579-.2400055 .056991579-.2460022 .06098938-.25 .066986087-.25 .07699585-.25 .16699219-.18200684 .22599793-.055007936 .2769928 .054992677 .2889862 .16600037 .2889862 .25Z"/>
<path id="font_1_2" d="M.37399293 .6046295C.3829956 .64060977 .38598634 .6516113 .47999574 .6516113 .5099945 .6516113 .5179901 .6516113 .5179901 .6706085 .5179901 .6826172 .5069885 .6826172 .5019989 .6826172 .46899415 .6826172 .3869934 .6796112 .35398866 .6796112 .32398988 .6796112 .25099183 .6826172 .22099304 .6826172 .21398926 .6826172 .20199585 .6826172 .20199585 .6626129 .20199585 .6516113 .21099854 .6516113 .22999573 .6516113 .23199463 .6516113 .25099183 .6516113 .2679901 .6496124 .28599549 .6476135 .29499818 .64660647 .29499818 .6336212 .29499818 .6296234 .2939911 .62661746 .29100038 .614624L.15699768 .07795715C.14698792 .038986207 .14498902 .0309906 .06599426 .0309906 .04899597 .0309906 .038986207 .0309906 .038986207 .010986328 .038986207 0 .04798889 0 .06599426 0H.5289917C.5529938 0 .55400088 0 .55999758 .016998291L.6389923 .23286438C.6429901 .24386597 .6429901 .24586487 .6429901 .24685669 .6429901 .2508545 .6399994 .25785829 .6309967 .25785829 .621994 .25785829 .62098696 .2528534 .6139984 .23686219 .5799866 .14492798 .5359955 .0309906 .36299134 .0309906H.2689972C.25498963 .0309906 .25299073 .0309906 .24699402 .03199768 .23699951 .032989503 .23399353 .033996583 .23399353 .041992189 .23399353 .04498291 .23399353 .04698181 .23899842 .064971927L.37399293 .6046295Z"/>
</defs>
<path transform="matrix(1.00003,0,0,-1,36.15764,20.006)" stroke-width=".3985" stroke-linecap="butt" stroke-dasharray="2.98883,1.99255" stroke-miterlimit="10" stroke-linejoin="miter" fill="none" stroke="#000000" d="M0 17.85828-.15651 17.85403-.31305 17.84343-.46988 17.82558-.62642 17.80106-.78265 17.77016-.9383 17.73233-1.0939 17.68721-1.24893 17.63483-1.40364 17.57579-1.55775 17.50977-1.71095 17.4371-1.86386 17.35777-2.01616 17.2715-2.16725 17.17854-2.31772 17.07893-2.46729 16.97266-2.61566 16.85971-2.76341 16.73982-2.90965 16.61327-3.05498 16.48094-3.1991 16.34227-3.34201 16.19695-3.4837 16.04526-3.62389 15.8872-3.76257 15.7225-3.90002 15.55234-4.03568 15.37582-4.1698 15.19354-4.30272 15.00522-4.43352 14.81145-4.5628 14.61131-4.68997 14.40541-4.81561 14.19408-4.93947 13.97699-5.06117 13.75446-5.18108 13.52736-5.29886 13.29425-5.4145 13.05656-5.52806 12.81282-5.63947 12.56454-5.74847 12.31113-5.85565 12.05318-5.96042 11.79065-6.06276 11.5233-6.16267 11.25171-6.26047 10.97557-6.35553 10.69492-6.44818 10.41061-6.5381 10.12177-6.62592 9.82927-6.711 9.53256-6.79335 9.2328-6.87328 8.92912-6.95018 8.6212-7.02437 8.31055-7.09583 7.99687-7.16486 7.67958-7.23087 7.35953-7.29414 7.03708-7.35469 6.711-7.41222 6.38309-7.46672 6.05214-7.5185 5.7191-7.56725 5.38393-7.61296 5.04604-7.65565 4.70692-7.69592 4.36539-7.73256 4.02264-7.76646 3.6784-7.79706 3.33232-7.8249 2.98474-7.84943 2.63655-7.87093 2.28683-7.8897 1.93652-7.90514 1.58562-7.91756 1.23409-7.92694 .88167-7.933 .52893-7.93602 .17648V-.17589L-7.933-.52832-7.92694-.88106-7.91756-1.23347-7.90514-1.58531-7.8897-1.93622-7.87093-2.28653-7.84943-2.63594-7.8249-2.98415-7.79706-3.33173-7.76646-3.6778-7.73286-4.02205-7.69592-4.36508-7.65565-4.70631-7.61296-5.04573-7.56725-5.38332-7.5185-5.7188-7.46672-6.05154-7.41222-6.38278-7.355-6.711-7.29445-7.03618-7.23117-7.35924-7.16486-7.67926-7.09613-7.99626-7.02467-8.31026-6.95049-8.6212-6.87328-8.92851-6.79366-9.23221-6.711-9.53226-6.62592-9.82835-6.5384-10.12115-6.44818-10.4097-6.35583-10.6946-6.26076-10.97528-6.16296-11.25142-6.06276-11.523-5.96042-11.79004-5.85565-12.05286-5.74878-12.31082-5.63947-12.56393-5.52837-12.81253-5.41481-13.05595-5.29886-13.29393-5.18108-13.52676-5.06117-13.75415-4.93947-13.9764-4.81592-14.19347-4.69028-14.40514-4.5628-14.61101-4.43382-14.81114-4.30302-15.00493-4.1701-15.19324-4.03598-15.37582-3.90002-15.55205-3.76286-15.72218-3.62389-15.8869-3.48401-16.04495-3.34232-16.19666-3.19942-16.34196-3.05528-16.48094-2.90996-16.61327-2.76341-16.73952-2.61595-16.8594-2.46759-16.97266-2.31804-17.07893-2.16756-17.17854-2.01616-17.2715-1.86417-17.35747-1.71126-17.43681-1.55806-17.50977-1.40396-17.57579-1.24924-17.63483-1.09422-17.6869-.93858-17.73233-.78265-17.77016-.62672-17.80106-.47018-17.82558-.31335-17.84343-.15651-17.85403 0-17.85797"/>
<path transform="matrix(1.00003,0,0,-1,36.15764,20.006)" stroke-width=".89664" stroke-linecap="butt" stroke-miterlimit="10" stroke-linejoin="miter" fill="none" stroke="#000000" d="M0-17.85828 .15651-17.85403 .31305-17.84343 .46988-17.82558 .62642-17.80106 .78265-17.77016 .9383-17.73233 1.0939-17.68721 1.24893-17.63483 1.40364-17.57579 1.55775-17.50977 1.71095-17.4371 1.86386-17.35777 2.01616-17.2715 2.16725-17.17854 2.31772-17.07893 2.46729-16.97266 2.61566-16.85971 2.76341-16.73982 2.90965-16.61327 3.05498-16.48094 3.1991-16.34227 3.34201-16.19695 3.4837-16.04526 3.62389-15.8872 3.76257-15.7225 3.90002-15.55234 4.03568-15.37582 4.1698-15.19354 4.30272-15.00522 4.43352-14.81145 4.5628-14.61131 4.68997-14.40541 4.81561-14.19408 4.93947-13.97699 5.06117-13.75446 5.18108-13.52736 5.29886-13.29425 5.4145-13.05656 5.52806-12.81282 5.63947-12.56454 5.74847-12.31113 5.85565-12.05318 5.96042-11.79065 6.06276-11.5233 6.16267-11.25171 6.26047-10.97557 6.35553-10.69492 6.44818-10.41061 6.5381-10.12177 6.62592-9.82927 6.711-9.53256 6.79335-9.2328 6.87328-8.92912 6.95018-8.6212 7.02437-8.31055 7.09583-7.99687 7.16486-7.67958 7.23087-7.35953 7.29414-7.03708 7.35469-6.711 7.41222-6.38309 7.46672-6.05214 7.5185-5.7191 7.56725-5.38393 7.61296-5.04604 7.65565-4.70692 7.69592-4.36539 7.73256-4.02264 7.76646-3.6784 7.79706-3.33232 7.8249-2.98474 7.84943-2.63655 7.87093-2.28683 7.8897-1.93652 7.90514-1.58562 7.91756-1.23409 7.92694-.88167 7.933-.52893 7.93602-.17648V.17589L7.933 .52832 7.92694 .88106 7.91756 1.23347 7.90514 1.58531 7.8897 1.93622 7.87093 2.28653 7.84943 2.63594 7.8249 2.98415 7.79706 3.33173 7.76646 3.6778 7.73286 4.02205 7.69592 4.36508 7.65565 4.70631 7.61296 5.04573 7.56725 5.38332 7.5185 5.7188 7.46672 6.05154 7.41222 6.38278 7.355 6.711 7.29445 7.03618 7.23117 7.35924 7.16486 7.67926 7.09613 7.99626 7.02467 8.31026 6.95049 8.6212 6.87328 8.92851 6.79366 9.23221 6.711 9.53226 6.62592 9.82835 6.5384 10.12115 6.44818 10.4097 6.35583 10.6946 6.26076 10.97528 6.16296 11.25142 6.06276 11.523 5.96042 11.79004 5.85565 12.05286 5.74878 12.31082 5.63947 12.56393 5.52837 12.81253 5.41481 13.05595 5.29886 13.29393 5.18108 13.52676 5.06117 13.75415 4.93947 13.9764 4.81592 14.19347 4.69028 14.40514 4.5628 14.61101 4.43382 14.81114 4.30302 15.00493 4.1701 15.19324 4.03598 15.37582 3.90002 15.55205 3.76286 15.72218 3.62389 15.8869 3.48401 16.04495 3.34232 16.19666 3.19942 16.34196 3.05528 16.48094 2.90996 16.61327 2.76341 16.73952 2.61595 16.8594 2.46759 16.97266 2.31804 17.07893 2.16756 17.17854 2.01616 17.2715 1.86417 17.35747 1.71126 17.43681 1.55806 17.50977 1.40396 17.57579 1.24924 17.63483 1.09422 17.6869 .93858 17.73233 .78265 17.77016 .62672 17.80106 .47018 17.82558 .31335 17.84343 .15651 17.85403 0 17.85797"/>
<path transform="matrix(1.00003,0,0,-1,36.15764,20.006)" stroke-width=".89664" stroke-linecap="butt" stroke-miterlimit="10" stroke-linejoin="miter" fill="none" stroke="#000000" d="M0 17.85828H158.74143"/>
<path transform="matrix(1.00003,0,0,-1,36.15764,20.006)" stroke-width=".89664" stroke-linecap="butt" stroke-miterlimit="10" stroke-linejoin="miter" fill="none" stroke="#000000" d="M0-17.85828H158.74143"/>
<path transform="matrix(1.00003,0,0,-1,36.15764,20.006)" stroke-width="1.0959" stroke-linecap="butt" stroke-miterlimit="10" stroke-linejoin="miter" fill="none" stroke="#000000" d="M158.74143-17.85828 158.89797-17.85553 159.05449-17.84859 159.21103-17.83708 159.36727-17.82164 159.52349-17.80135 159.67942-17.77682 159.83535-17.74867 159.99098-17.71536 160.146-17.67752 160.30103-17.63573 160.45543-17.58942 160.60955-17.53793 160.76305-17.48253 160.91596-17.42259 161.06856-17.359 161.22055-17.29057 161.37195-17.21791 161.52242-17.14099 161.67259-17.05984 161.82186-16.97508 161.97052-16.88545 162.11829-16.7916 162.26482-16.69319 162.41075-16.59116 162.55579-16.48457 162.6999-16.37375 162.84311-16.25931 162.98513-16.14091 163.12622-16.0183 163.2661-15.89174 163.40508-15.76155 163.54283-15.62712 163.6791-15.48845 163.8144-15.34584 163.94826-15.1999 164.08087-15.05003 164.21227-14.89621 164.34215-14.7394 164.47084-14.57831 164.59799-14.4139 164.72367-14.24586 164.84778-14.07388 164.97042-13.89857 165.09183-13.71964 165.21112-13.53737 165.3289-13.35176 165.44547-13.16284 165.55992-12.97087 165.67285-12.7759 165.78397-12.57726 165.89357-12.3759 166.00138-12.17094 166.10704-11.96294 166.21089-11.7522 166.31291-11.53845 166.41315-11.32166 166.51155-11.10214 166.60813-10.88022 166.70259-10.65524 166.79494-10.42757 166.88547-10.19775 166.97389-9.96523 167.06047-9.72998 167.14466-9.49228 167.22672-9.25249 167.30695-9.01027 167.38475-8.76563 167.46044-8.51886 167.53401-8.26967 167.60547-8.01898 167.6748-7.76616 167.74202-7.51154 167.80683-7.25479 167.86919-6.9965 167.92945-6.73552 167.98726-6.47392 168.04268-6.2105 168.09627-5.94527 168.14713-5.67883 168.19588-5.41118 168.24192-5.1414 168.2861-4.87103 168.3279-4.59914 168.36695-4.32634 168.40358-4.05171 168.4378-3.77681 168.46959-3.50127 168.49927-3.22392 168.5262-2.94629 168.55072-2.66803 168.57314-2.38918 168.59282-2.10942 168.61008-1.82906 168.62491-1.54837 168.63733-1.2677 168.64733-.98611 168.65459-.70454 168.65944-.42265 168.66185-.14107V.14047L168.65944 .42204 168.65459 .70393 168.64702 .9855 168.63733 1.26678 168.62491 1.54776 168.61008 1.82845 168.59282 2.10881 168.57314 2.38828 168.55072 2.66742 168.5262 2.94568 168.49927 3.22331 168.46959 3.50037 168.4378 3.7765 168.40358 4.05142 168.36725 4.32542 168.3279 4.59853 168.2861 4.87042 168.2422 5.1408 168.19588 5.41026 168.14713 5.67822 168.09627 5.94467 168.04299 6.20961 167.98757 6.47331 167.92975 6.73552 167.86949 6.9953 167.80683 7.25418 167.74202 7.51062 167.6748 7.76556 167.60578 8.01869 167.53432 8.26907 167.46074 8.51796 167.38475 8.76503 167.30695 9.00935 167.227 9.25159 167.14495 9.49168 167.06047 9.72966 166.9742 9.96431 166.88578 10.19684 166.79523 10.42726 166.7029 10.65465 166.60813 10.87961 166.51186 11.10185 166.41345 11.32135 166.31322 11.53815 166.21118 11.75189 166.10735 11.96263 166.00138 12.17064 165.89389 12.37502 165.78429 12.57666 165.67316 12.77498 165.56023 12.97026 165.44547 13.16254 165.32952 13.35147 165.21143 13.53676 165.09183 13.71904 164.97072 13.89828 164.84839 14.07358 164.72428 14.24527 164.5983 14.41359 164.47115 14.5777 164.34247 14.73878 164.21259 14.89592 164.08116 15.04974 163.94857 15.1993 163.81473 15.34584 163.67969 15.48784 163.54314 15.62651 163.40538 15.76094 163.26671 15.89143 163.12653 16.018 162.98543 16.14063 162.84342 16.259 162.70021 16.37346 162.55609 16.48396 162.41106 16.59055 162.26543 16.69258 162.11858 16.79099 161.97083 16.88545 161.82247 16.97508 161.6729 17.05984 161.52303 17.14099 161.37224 17.21791 161.22086 17.29057 161.06887 17.35869 160.91657 17.42259 160.76366 17.48253 160.60985 17.53793 160.45574 17.58911 160.30133 17.63542 160.1466 17.67752 159.99127 17.71506 159.83567 17.74837 159.67974 17.77682 159.52379 17.80106 159.36756 17.82133 159.21134 17.83708 159.0548 17.84859 158.89826 17.85553 158.74173 17.85797"/>
<use data-text="u" xlink:href="#font_1_4" transform="matrix(9.962899,0,0,-9.9626,1.2165909,22.497)"/>
<use data-text="(" xlink:href="#font_2_1" transform="matrix(9.962899,0,0,-9.9626,6.9197695,22.497)"/>
<use data-text="0" xlink:href="#font_2_3" transform="matrix(9.962899,0,0,-9.9626,10.785362,22.497)"/>
<use data-text="," xlink:href="#font_1_1" transform="matrix(9.962899,0,0,-9.9626,15.776024,22.497)"/>
<use data-text="t" xlink:href="#font_1_3" transform="matrix(9.962899,0,0,-9.9626,20.189599,22.497)"/>
<use data-text=")" xlink:href="#font_2_2" transform="matrix(9.962899,0,0,-9.9626,23.802269,22.497)"/>
<use data-text="u" xlink:href="#font_1_4" transform="matrix(9.962899,0,0,-9.9626,215.29103,22.497)"/>
<use data-text="(" xlink:href="#font_2_1" transform="matrix(9.962899,0,0,-9.9626,220.9942,22.497)"/>
<use data-text="L" xlink:href="#font_1_2" transform="matrix(9.962899,0,0,-9.9626,224.86933,22.497)"/>
<use data-text="," xlink:href="#font_1_1" transform="matrix(9.962899,0,0,-9.9626,231.6441,22.497)"/>
<use data-text="t" xlink:href="#font_1_3" transform="matrix(9.962899,0,0,-9.9626,236.05767,22.497)"/>
<use data-text=")" xlink:href="#font_2_2" transform="matrix(9.962899,0,0,-9.9626,239.67478,22.497)"/>
</svg>
