<svg xmlns="http://www.w3.org/2000/svg" xmlns:xlink="http://www.w3.org/1999/xlink" xmlns:inkscape="http://www.inkscape.org/namespaces/inkscape" version="1.1" width="71" height="82" viewBox="0 0 71 82">
<defs>
<clipPath id="clip_1">
<path transform="matrix(1.00008,0,0,-1.00002,24.575448,69.63207)" d="M-22.6771-11.33855V68.0313H45.35419V-11.33855ZM45.35419 68.0313"/>
</clipPath>
<path id="font_2_1" d="M.33399964 .30233766C.33999635 .32835389 .36299134 .42037965 .43299867 .42037965 .43798829 .42037965 .46199037 .42037965 .48298646 .40734864 .45498658 .402359 .43499757 .37734986 .43499757 .35334779 .43499757 .33735658 .44599916 .31835938 .47299195 .31835938 .49499513 .31835938 .5269928 .3363495 .5269928 .37635804 .5269928 .42837525 .46798707 .4423828 .43399049 .4423828 .37599183 .4423828 .34098817 .38935853 .32899476 .36634828 .3039856 .43237306 .25 .4423828 .22099304 .4423828 .116989139 .4423828 .05999756 .3133545 .05999756 .28834535 .05999756 .27833558 .069992069 .27833558 .07199097 .27833558 .07998657 .27833558 .08299255 .28033448 .084991458 .28933717 .11898804 .39535523 .18499756 .42037965 .21899414 .42037965 .23799134 .42037965 .272995 .4113617 .272995 .35334779 .272995 .32235719 .2559967 .25532533 .21899414 .11528015 .20298767 .053268434 .16799927 .011245728 .12399292 .011245728 .117996219 .011245728 .09498596 .011245728 .07398987 .024276734 .09899902 .029266358 .12098694 .05027771 .12098694 .07827759 .12098694 .105270389 .09899902 .11328125 .083999637 .11328125 .053985597 .11328125 .0289917 .08728027 .0289917 .055267335 .0289917 .009246826 .07899475-.0107421879 .12298584-.0107421879 .18899536-.0107421879 .22499085 .059280397 .22799683 .0652771 .23999024 .028274537 .27598573-.0107421879 .33599855-.0107421879 .43899537-.0107421879 .49598695 .118270877 .49598695 .14328003 .49598695 .1532898 .4869995 .1532898 .48399354 .1532898 .47499085 .1532898 .47299195 .14929199 .47099305 .14228821 .43798829 .03527832 .36999513 .011245728 .33799745 .011245728 .29899598 .011245728 .2829895 .043273927 .2829895 .07727051 .2829895 .09927368 .2889862 .121276859 .2999878 .16529846L.33399964 .30233766Z"/>
<path id="font_2_2" d="M.48599244 .38136292C.48999024 .39537049 .48999024 .39736939 .48999024 .40437318 .48999024 .42237855 .47599793 .43138124 .46099855 .43138124 .45098878 .43138124 .43499757 .42536927 .42599488 .41036988 .42399598 .405365 .41600038 .37435914 .4119873 .35635377 .40499879 .33035279 .397995 .30334474 .3919983 .27633668L.34700013 .09628296C.34298707 .08126831 .2999878 .011245728 .23399353 .011245728 .18299866 .011245728 .17199707 .055267335 .17199707 .0922699 .17199707 .1382904 .18899536 .20030213 .22299195 .28833009 .23899842 .3293457 .24299622 .3403473 .24299622 .36035157 .24299622 .405365 .21099854 .4423828 .16099549 .4423828 .06599426 .4423828 .0289917 .29733277 .0289917 .28833009 .0289917 .27833558 .038986207 .27833558 .040985109 .27833558 .050994874 .27833558 .051986696 .28033448 .056991579 .29634095 .083999637 .3903656 .12399292 .42037965 .1579895 .42037965 .1659851 .42037965 .18299866 .42037965 .18299866 .3883667 .18299866 .36335755 .17298889 .3373413 .1659851 .31834413 .12599182 .21231079 .10798645 .1552887 .10798645 .10827637 .10798645 .019256592 .17098999-.0107421879 .22999573-.0107421879 .2689972-.0107421879 .30299378 .0062561037 .33099366 .03425598 .31799317-.017745972 .30599977-.06674194 .2659912-.11973572 .23999024-.15385437 .20199585-.18309021 .1559906-.18309021 .14199829-.18309021 .09700012-.18005371 .07998657-.14074707 .09599304-.14074707 .10899353-.14074707 .12298584-.1287384 .1329956-.11973572 .14299011-.10673523 .14299011-.08773804 .14299011-.056747438 .115997318-.052734376 .10598755-.052734376 .08299255-.052734376 .049987794-.068740848 .049987794-.11773682 .049987794-.16796875 .09399414-.20507813 .1559906-.20507813 .25898744-.20507813 .3619995-.11373901 .3899994-.00074768069L.48599244 .38136292Z"/>
<path id="font_3_64" d="M.27598573 .18710327V.24511719H.010986328V.18710327H.27598573Z"/>
<path id="font_3_82" d="M.4189911 0V.0309906H.3869934C.29699708 .0309906 .2939911 .041992189 .2939911 .07902527V.64012148C.2939911 .6640167 .2939911 .6660156 .2709961 .6660156 .20899964 .60227969 .12098694 .60227969 .08898926 .60227969V.57128909C.10899353 .57128909 .16799927 .57128909 .21998596 .5972748V.07902527C.21998596 .042999269 .21699524 .0309906 .1269989 .0309906H.09498596V0C.12998963 .0029907227 .21699524 .0029907227 .25698854 .0029907227 .29699708 .0029907227 .38398744 .0029907227 .4189911 0Z"/>
<path id="font_3_107" d="M.44898988 .17396546H.42399598C.4189911 .14398194 .4119873 .099990848 .4019928 .084991458 .394989 .07699585 .32899476 .07699585 .30699159 .07699585H.1269989L.23298645 .17996216C.3889923 .31803895 .44898988 .37210084 .44898988 .47216798 .44898988 .5860901 .35899354 .6660156 .23699951 .6660156 .12399292 .6660156 .049987794 .57411196 .049987794 .48516847 .049987794 .4291687 .099990848 .4291687 .102996829 .4291687 .11999512 .4291687 .15499878 .44117738 .15499878 .48217774 .15499878 .5081787 .13699341 .5341797 .101989749 .5341797 .09399414 .5341797 .09199524 .5341797 .08898926 .5331726 .11199951 .59806826 .1659851 .63500979 .22399903 .63500979 .31498719 .63500979 .35798646 .5541382 .35798646 .47216798 .35798646 .39196778 .30799867 .31297303 .25299073 .25097657L.06098938 .036987306C.049987794 .025985718 .049987794 .023986817 .049987794 0H.42099L.44898988 .17396546Z"/>
<path id="font_3_106" d="M.45700074 .17037964C.45700074 .252594 .3939972 .33088685 .2899933 .35191346 .37199403 .37893678 .42999269 .4490509 .42999269 .52809146 .42999269 .6100464 .34199525 .6660156 .24598694 .6660156 .14498902 .6660156 .068984989 .60606387 .068984989 .53009036 .068984989 .49710084 .09098816 .47808839 .11999512 .47808839 .15098572 .47808839 .17098999 .50009158 .17098999 .5290985 .17098999 .57910159 .12399292 .57910159 .10899353 .57910159 .13999939 .62802127 .20599365 .64100649 .24198914 .64100649 .2829895 .64100649 .33799745 .6190338 .33799745 .5290985 .33799745 .51708987 .33599855 .45906068 .30999757 .4149933 .27999879 .36691285 .24598694 .36390687 .22099304 .36291505 .21299744 .36190797 .18899536 .35990907 .18199158 .35990907 .17399597 .35890199 .16699219 .35791017 .16699219 .3479004 .16699219 .33691407 .17399597 .33691407 .19099427 .33691407H.23498535C.31698609 .33691407 .35398866 .2686615 .35398866 .17037964 .35398866 .034469606 .2849884 .0055389406 .24099732 .0055389406 .19799805 .0055389406 .12298584 .022491456 .08799744 .08137512 .12298584 .07637024 .1539917 .09837341 .1539917 .1363678 .1539917 .17237854 .1269989 .19238281 .09799194 .19238281 .07398987 .19238281 .041992189 .17837525 .041992189 .1343689 .041992189 .043441774 .1349945-.022460938 .24398804-.022460938 .3659973-.022460938 .45700074 .06838989 .45700074 .17037964Z"/>
<path id="font_3_57" d="M.47099305 .16503906V.19602967H.37098695V.6507721C.37098695 .6707611 .37098695 .6767578 .35499574 .6767578 .34599305 .6767578 .34298707 .6767578 .33499146 .6647644L.027999878 .19602967V.16503906H.2939911V.07800293C.2939911 .041992189 .2919922 .0309906 .21798706 .0309906H.19699097V0C.23799134 .0029907227 .2899933 .0029907227 .33198548 .0029907227 .37399293 .0029907227 .4269867 .0029907227 .46798707 0V.0309906H.44699098C.37298585 .0309906 .37098695 .041992189 .37098695 .07800293V.16503906H.47099305M.2999878 .19602967H.055999757L.2999878 .56881716V.19602967Z"/>
<path id="font_3_56" d="M.44898988 .20091248C.44898988 .31991578 .36698915 .41992188 .25898744 .41992188 .21099854 .41992188 .16799927 .4039154 .13198853 .36891175V.5641022C.1519928 .55778506 .18499756 .55078127 .21699524 .55078127 .33999635 .55078127 .4099884 .6418457 .4099884 .65493777 .4099884 .6609802 .40699769 .6660156 .3999939 .6660156 .3999939 .66607668 .39698792 .66607668 .3919983 .66308596 .37199403 .65408328 .32299806 .63378909 .2559967 .63378909 .21598816 .63409426 .16999817 .641098 .12298584 .6621094 .114990238 .6651001 .11099243 .6651001 .11099243 .6651001 .100997928 .66508486 .100997928 .657074 .100997928 .64108279V.3447113C.100997928 .3266449 .100997928 .31861878 .114990238 .31861878 .12199402 .31861878 .12399292 .32164 .12799073 .32765199 .13899231 .34371949 .17599488 .3979187 .25698854 .3979187 .30899049 .3979187 .33399964 .3517456 .34199525 .3336792 .35798646 .2965393 .3600006 .2574005 .3600006 .20721436 .3600006 .17218018 .3600006 .112197879 .33599855 .07032776 .31199647 .031448366 .2749939 .0055389406 .22898865 .0055389406 .1559906 .0055389406 .09899902 .05836487 .08198547 .1171875 .084991458 .11685181 .08799744 .115859989 .09899902 .115859989 .13198853 .115859989 .14898682 .14085388 .14898682 .16485596 .14898682 .18885803 .13198853 .21386719 .09899902 .21386719 .084991458 .21386719 .049987794 .2068634 .049987794 .16085816 .049987794 .07432556 .11898804-.022460938 .23098755-.022460938 .34700013-.022460938 .44898988 .07331848 .44898988 .20019531V.20091248Z"/>
<path id="font_4_1" d="M.44099427 .7259979C.44099427 .72698977 .44400025 .73098757 .44400025 .73599246 .44400025 .73999026 .44198609 .75 .4269867 .75 .40699769 .75 .1499939 .58999636 .1499939 .25 .1499939-.08900452 .40699769-.25 .4269867-.25 .44198609-.25 .44400025-.2400055 .44400025-.23600769 .44400025-.2290039 .43998719-.22601319 .43598939-.2230072 .25898744-.08200073 .22698975 .12098694 .22698975 .25 .22698975 .49499513 .33999635 .6559906 .44099427 .7259979Z"/>
<path id="font_5_1" d="M.8799896 .2223053C.8959961 .2223053 .9229889 .2223053 .9229889 .25030519 .9229889 .2783203 .8959961 .2783203 .8799896 .2783203H.20298767C.18699646 .2783203 .1599884 .2783203 .1599884 .25030519 .1599884 .2223053 .18699646 .2223053 .20298767 .2223053H.8799896Z"/>
<path id="font_4_4" d="M.397995 .63591006C.397995 .6660156 .394989 .6660156 .3619995 .6660156 .29100038 .6016083 .17999268 .6016083 .1599884 .6016083H.14299011V.5576172H.1599884C.18299866 .5576172 .24798584 .5606079 .30599977 .58561709V.08596802C.30599977 .054977418 .30599977 .04399109 .19999695 .04399109H.1499939V0C.20498657 .0039978029 .2939911 .0039978029 .35198976 .0039978029 .4099884 .0039978029 .49899293 .0039978029 .55400088 0V.04399109H.5039978C.397995 .04399109 .397995 .054977418 .397995 .08596802V.63591006Z"/>
<path id="font_6_1" d="M.269989 .01399231C.269989-.08216858 .21798706-.13726807 .19099427-.15931702 .18099976-.16732788 .1789856-.16934204 .1789856-.17634583 .1789856-.18234253 .18798828-.19433594 .19699097-.19433594 .20999146-.19433594 .3039856-.1162262 .3039856 .008987427 .3039856 .07699585 .27398683 .12199402 .22898865 .12199402 .19099427 .12199402 .16799927 .09199524 .16799927 .06098938 .16799927 .0289917 .19099427 0 .22898865 0 .24398804 0 .25898744 .0039978029 .269989 .01399231Z"/>
<path id="font_4_5" d="M.58898928 .19296265H.5469971C.5439911 .17396546 .5339966 .11198425 .5179901 .101989749 .5099945 .09599304 .42599488 .09599304 .41099549 .09599304H.21499634C.2809906 .14497376 .35499574 .20095825 .4149933 .24093628 .5049896 .30291749 .58898928 .36090089 .58898928 .46687318 .58898928 .59495547 .46798707 .6660156 .32499696 .6660156 .18998719 .6660156 .09098816 .58795168 .09098816 .48986817 .09098816 .4378662 .1349945 .42886354 .14898682 .42886354 .17599488 .42886354 .20799256 .4468689 .20799256 .48786927 .20799256 .52386477 .18199158 .543869 .15098572 .546875 .1789856 .59194949 .23699951 .6220093 .3039856 .6220093 .40098573 .6220093 .48199464 .5639038 .48199464 .4658661 .48199464 .3818817 .42399598 .31791688 .34700013 .2529297L.102996829 .04598999C.09298706 .036987306 .09199524 .036987306 .09098816 .02999878V0H.55599978L.58898928 .19296265Z"/>
<path id="font_4_2" d="M.3909912 .25C.3909912 .58898928 .13398743 .75 .11399841 .75 .09799194 .75 .09799194 .73799136 .09799194 .73599246 .09799194 .73498538 .09799194 .72898867 .10398865 .72299197 .2539978 .60398867 .31399537 .42999269 .31399537 .25 .31399537 .1599884 .29699708 .06599426 .2630005-.01600647 .21499634-.13000489 .1519928-.18501282 .102996829-.2250061 .099990848-.227005 .09799194-.23200989 .09799194-.23600769 .09799194-.23800659 .09799194-.25 .11399841-.25 .13398743-.25 .3909912-.0900116 .3909912 .25Z"/>
<path id="font_4_3" d="M.6009979 .31976319C.6009979 .3918152 .6009979 .6660156 .33999635 .6660156 .07899475 .6660156 .07899475 .3918152 .07899475 .31976319 .07899475 .2467041 .07899475-.022460938 .33999635-.022460938 .6009979-.022460938 .6009979 .2467041 .6009979 .31976319M.33999635 .010528564C.30299378 .010528564 .21899414 .023544312 .19400025 .12461853 .17999268 .17866516 .1789856 .24971009 .1789856 .33177186 .1789856 .405838 .1789856 .47488404 .19499207 .5319214 .21998596 .6159973 .29699708 .63301089 .33999635 .63301089 .4139862 .63301089 .46699525 .5949707 .4869995 .5249176 .5009918 .47387696 .5009918 .39082337 .5009918 .33177186 .5009918 .26371766 .5009918 .18266297 .48599244 .12261963 .45999146 .025543213 .37998963 .010528564 .33999635 .010528564Z"/>
<path id="font_4_6" d="M.19599915 .55078127C.24899292 .53778079 .2939911 .53778079 .30499269 .53778079 .37298585 .53778079 .4229889 .55778506 .44898988 .57177737 .47299195 .583786 .54100039 .6267853 .54100039 .64878848 .54100039 .66378787 .5299988 .66578677 .5269928 .66578677 .5249939 .66578677 .522995 .66578677 .5119934 .66078189 .47399903 .6477814 .4119873 .63378909 .34599305 .63378909 .2889862 .63378909 .23399353 .64378359 .18099976 .66178897 .16999817 .66578677 .16799927 .66578677 .1659851 .66578677 .1519928 .66578677 .1519928 .6537781 .1519928 .63778689V.33763124C.1519928 .32061769 .1519928 .30760194 .17098999 .30760194 .18199158 .30760194 .18299866 .30960084 .19198609 .32061769 .22999573 .36468507 .2829895 .38671876 .35099793 .38671876 .40899659 .38671876 .44099427 .35266114 .45498658 .33163453 .47799684 .2975769 .48298646 .2525177 .48298646 .20446778 .48298646 .16246033 .47898866 .10646057 .43998719 .067489627 .394989 .021530152 .33799745 .01852417 .31599427 .01852417 .25099183 .01852417 .17799378 .04650879 .14698792 .10546875 .18899536 .10845947 .20298767 .13845825 .20298767 .1614685 .20298767 .19346619 .1789856 .21746826 .14698792 .21746826 .125 .21746826 .09098816 .20446778 .09098816 .15846253 .09098816 .0605011 .18699646-.022460938 .31799317-.022460938 .46699525-.022460938 .58898928 .07748413 .58898928 .20146179 .58898928 .3146057 .49198915 .41970826 .35299684 .41970826 .2899933 .41970826 .23899842 .40371705 .19599915 .37068177V.55078127Z"/>
</defs>
<g clip-path="url(#clip_1)">
<path transform="matrix(1.00008,0,0,-1.00002,24.575448,69.63207)" stroke-width=".79701" stroke-linecap="butt" stroke-miterlimit="10" stroke-linejoin="miter" fill="none" stroke="#000000" d="M-22.6771 0H44.64682"/>
<path transform="matrix(1.00008,0,0,-1.00002,69.22584,69.63207)" stroke-width=".6376" stroke-linecap="round" stroke-linejoin="round" fill="none" stroke="#000000" d="M-1.55415 2.0722C-1.42464 1.29512 0 .1295 .38852 0 0-.1295-1.42464-1.29512-1.55415-2.0722"/>
<use data-text="x" xlink:href="#font_2_1" transform="matrix(9.963397,0,0,-9.962799,73.652378,71.777118)"/>
<path transform="matrix(1.00008,0,0,-1.00002,24.575448,69.63207)" stroke-width=".79701" stroke-linecap="butt" stroke-miterlimit="10" stroke-linejoin="miter" fill="none" stroke="#000000" d="M0-11.33855V67.32393"/>
<path transform="matrix(0,-1.00002,-1.00008,-0,24.575448,2.3067933)" stroke-width=".6376" stroke-linecap="round" stroke-linejoin="round" fill="none" stroke="#000000" d="M-1.55415 2.0722C-1.42464 1.29512 0 .1295 .38852 0 0-.1295-1.42464-1.29512-1.55415-2.0722"/>
<use data-text="y" xlink:href="#font_2_2" transform="matrix(9.963397,0,0,-9.962799,21.954239,-4.0574038)"/>
<path transform="matrix(1.00008,0,0,-1.00002,24.575448,69.63207)" stroke-width=".3985" stroke-linecap="butt" stroke-miterlimit="10" stroke-linejoin="miter" fill="none" stroke="#000000" d="M-11.33855 0V1.36055"/>
<use data-text="-" xlink:href="#font_3_64" transform="matrix(3.985359,0,0,-3.9851199,11.576611,65.8668)"/>
<use data-text="1" xlink:href="#font_3_82" transform="matrix(3.985359,0,0,-3.9851199,12.903736,65.8668)"/>
<path transform="matrix(1.00008,0,0,-1.00002,24.575448,69.63207)" stroke-width=".3985" stroke-linecap="butt" stroke-miterlimit="10" stroke-linejoin="miter" fill="none" stroke="#000000" d="M11.33855 0V1.36055"/>
<use data-text="1" xlink:href="#font_3_82" transform="matrix(3.985359,0,0,-3.9851199,34.918478,65.8668)"/>
<path transform="matrix(1.00008,0,0,-1.00002,24.575448,69.63207)" stroke-width=".3985" stroke-linecap="butt" stroke-miterlimit="10" stroke-linejoin="miter" fill="none" stroke="#000000" d="M22.6771 0V1.36055"/>
<use data-text="2" xlink:href="#font_3_107" transform="matrix(3.985359,0,0,-3.9851199,46.25838,65.8668)"/>
<path transform="matrix(1.00008,0,0,-1.00002,24.575448,69.63207)" stroke-width=".3985" stroke-linecap="butt" stroke-miterlimit="10" stroke-linejoin="miter" fill="none" stroke="#000000" d="M34.01564 0V1.36055"/>
<use data-text="3" xlink:href="#font_3_106" transform="matrix(3.985359,0,0,-3.9851199,57.597288,65.77979)"/>
<path transform="matrix(1.00008,0,0,-1.00002,24.575448,69.63207)" stroke-width=".3985" stroke-linecap="butt" stroke-miterlimit="10" stroke-linejoin="miter" fill="none" stroke="#000000" d="M0-11.33855H1.36055"/>
<use data-text="-" xlink:href="#font_3_64" transform="matrix(3.985359,0,0,-3.9851199,28.340954,82.29813)"/>
<use data-text="1" xlink:href="#font_3_82" transform="matrix(3.985359,0,0,-3.9851199,29.66808,82.29813)"/>
<path transform="matrix(1.00008,0,0,-1.00002,24.575448,69.63207)" stroke-width=".3985" stroke-linecap="butt" stroke-miterlimit="10" stroke-linejoin="miter" fill="none" stroke="#000000" d="M0 11.33855H1.36055"/>
<use data-text="1" xlink:href="#font_3_82" transform="matrix(3.985359,0,0,-3.9851199,28.340954,59.619676)"/>
<path transform="matrix(1.00008,0,0,-1.00002,24.575448,69.63207)" stroke-width=".3985" stroke-linecap="butt" stroke-miterlimit="10" stroke-linejoin="miter" fill="none" stroke="#000000" d="M0 22.6771H1.36055"/>
<use data-text="2" xlink:href="#font_3_107" transform="matrix(3.985359,0,0,-3.9851199,28.340954,48.28144)"/>
<path transform="matrix(1.00008,0,0,-1.00002,24.575448,69.63207)" stroke-width=".3985" stroke-linecap="butt" stroke-miterlimit="10" stroke-linejoin="miter" fill="none" stroke="#000000" d="M0 34.01564H1.36055"/>
<use data-text="3" xlink:href="#font_3_106" transform="matrix(3.985359,0,0,-3.9851199,28.340954,36.899217)"/>
<path transform="matrix(1.00008,0,0,-1.00002,24.575448,69.63207)" stroke-width=".3985" stroke-linecap="butt" stroke-miterlimit="10" stroke-linejoin="miter" fill="none" stroke="#000000" d="M0 45.35419H1.36055"/>
<use data-text="4" xlink:href="#font_3_57" transform="matrix(3.985359,0,0,-3.9851199,28.340954,25.62599)"/>
<path transform="matrix(1.00008,0,0,-1.00002,24.575448,69.63207)" stroke-width=".3985" stroke-linecap="butt" stroke-miterlimit="10" stroke-linejoin="miter" fill="none" stroke="#000000" d="M0 56.69275H1.36055"/>
<use data-text="5" xlink:href="#font_3_56" transform="matrix(3.985359,0,0,-3.9851199,28.340954,14.22076)"/>
<path transform="matrix(1.00008,0,0,-1.00002,24.575448,69.63207)" stroke-width=".79701" stroke-linecap="butt" stroke-miterlimit="10" stroke-linejoin="miter" fill="none" stroke="#000000" d="M-11.33855 22.6771V.70735"/>
<path transform="matrix(0,1.00002,1.00008,0,13.235991,68.924709)" stroke-width=".6376" stroke-linecap="round" stroke-linejoin="round" fill="none" stroke="#000000" d="M-1.55415 2.0722C-1.42464 1.29512 0 .1295 .38852 0 0-.1295-1.42464-1.29512-1.55415-2.0722"/>
<path transform="matrix(1.00008,0,0,-1.00002,24.575448,69.63207)" stroke-width=".79701" stroke-linecap="butt" stroke-miterlimit="10" stroke-linejoin="miter" fill="none" stroke="#000000" d="M-11.33855 0H21.96973"/>
<path transform="matrix(1.00008,0,0,-1.00002,46.546937,69.63207)" stroke-width=".6376" stroke-linecap="round" stroke-linejoin="round" fill="none" stroke="#000000" d="M-1.55415 2.0722C-1.42464 1.29512 0 .1295 .38852 0 0-.1295-1.42464-1.29512-1.55415-2.0722"/>
<path transform="matrix(1.00008,0,0,-1.00002,24.575448,69.63207)" stroke-width=".79701" stroke-linecap="butt" stroke-miterlimit="10" stroke-linejoin="miter" fill="none" stroke="#000000" d="M22.6771 0V55.98538"/>
<path transform="matrix(0,-1.00002,-1.00008,-0,47.25436,13.645573)" stroke-width=".6376" stroke-linecap="round" stroke-linejoin="round" fill="none" stroke="#000000" d="M-1.55415 2.0722C-1.42464 1.29512 0 .1295 .38852 0 0-.1295-1.42464-1.29512-1.55415-2.0722"/>
<path transform="matrix(1.00008,0,0,-1.00002,24.575448,69.63207)" d="M-10.54153 22.6771C-10.54153 23.11726-10.89836 23.47409-11.33855 23.47409-11.77872 23.47409-12.13554 23.11726-12.13554 22.6771-12.13554 22.23691-11.77872 21.88008-11.33855 21.88008-10.89836 21.88008-10.54153 22.23691-10.54153 22.6771ZM-11.33855 22.6771"/>
<use data-text="(" xlink:href="#font_4_1" transform="matrix(4.9816987,0,0,-4.9813997,2.695694,42.18952)"/>
<use data-text="&#x2212;" xlink:href="#font_5_1" transform="matrix(4.9816987,0,0,-4.9813997,5.394905,42.18952)"/>
<use data-text="1" xlink:href="#font_4_4" transform="matrix(4.9816987,0,0,-4.9813997,10.791344,42.18952)"/>
<use data-text="," xlink:href="#font_6_1" transform="matrix(4.9816987,0,0,-4.9813997,14.18161,42.18952)"/>
<use data-text="2" xlink:href="#font_4_5" transform="matrix(4.9816987,0,0,-4.9813997,17.68789,42.18952)"/>
<use data-text=")" xlink:href="#font_4_2" transform="matrix(4.9816987,0,0,-4.9813997,21.075448,42.18952)"/>
<path transform="matrix(1.00008,0,0,-1.00002,24.575448,69.63207)" d="M-10.54153 0C-10.54153 .44017-10.89836 .797-11.33855 .797-11.77872 .797-12.13554 .44017-12.13554 0-12.13554-.44017-11.77872-.797-11.33855-.797-10.89836-.797-10.54153-.44017-10.54153 0ZM-11.33855 0"/>
<use data-text="(" xlink:href="#font_4_1" transform="matrix(4.9816987,0,0,-4.9813997,2.695694,76.888217)"/>
<use data-text="&#x2212;" xlink:href="#font_5_1" transform="matrix(4.9816987,0,0,-4.9813997,5.394905,76.888217)"/>
<use data-text="1" xlink:href="#font_4_4" transform="matrix(4.9816987,0,0,-4.9813997,10.791344,76.888217)"/>
<use data-text="," xlink:href="#font_6_1" transform="matrix(4.9816987,0,0,-4.9813997,14.18161,76.888217)"/>
<use data-text="0" xlink:href="#font_4_3" transform="matrix(4.9816987,0,0,-4.9813997,17.68789,76.888217)"/>
<use data-text=")" xlink:href="#font_4_2" transform="matrix(4.9816987,0,0,-4.9813997,21.075448,76.888217)"/>
<path transform="matrix(1.00008,0,0,-1.00002,24.575448,69.63207)" d="M23.47409 0C23.47409 .44017 23.11726 .797 22.6771 .797 22.23691 .797 21.88008 .44017 21.88008 0 21.88008-.44017 22.23691-.797 22.6771-.797 23.11726-.797 23.47409-.44017 23.47409 0ZM22.6771 0"/>
<use data-text="(" xlink:href="#font_4_1" transform="matrix(4.9816987,0,0,-4.9813997,39.412637,76.888217)"/>
<use data-text="2" xlink:href="#font_4_5" transform="matrix(4.9816987,0,0,-4.9813997,42.107736,76.888217)"/>
<use data-text="," xlink:href="#font_6_1" transform="matrix(4.9816987,0,0,-4.9813997,45.50212,76.888217)"/>
<use data-text="0" xlink:href="#font_4_3" transform="matrix(4.9816987,0,0,-4.9813997,49.007394,76.888217)"/>
<use data-text=")" xlink:href="#font_4_2" transform="matrix(4.9816987,0,0,-4.9813997,52.39495,76.888217)"/>
<path transform="matrix(1.00008,0,0,-1.00002,24.575448,69.63207)" d="M23.47409 56.69275C23.47409 57.13292 23.11726 57.48976 22.6771 57.48976 22.23691 57.48976 21.88008 57.13292 21.88008 56.69275 21.88008 56.25258 22.23691 55.89574 22.6771 55.89574 23.11726 55.89574 23.47409 56.25258 23.47409 56.69275ZM22.6771 56.69275"/>
<use data-text="(" xlink:href="#font_4_1" transform="matrix(4.9816987,0,0,-4.9813997,39.412637,8.17284)"/>
<use data-text="2" xlink:href="#font_4_5" transform="matrix(4.9816987,0,0,-4.9813997,42.107736,8.17284)"/>
<use data-text="," xlink:href="#font_6_1" transform="matrix(4.9816987,0,0,-4.9813997,45.50212,8.17284)"/>
<use data-text="5" xlink:href="#font_4_6" transform="matrix(4.9816987,0,0,-4.9813997,49.007394,8.17284)"/>
<use data-text=")" xlink:href="#font_4_2" transform="matrix(4.9816987,0,0,-4.9813997,52.39495,8.17284)"/>
</g>
</svg>
