<svg xmlns="http://www.w3.org/2000/svg" xmlns:xlink="http://www.w3.org/1999/xlink" xmlns:inkscape="http://www.inkscape.org/namespaces/inkscape" version="1.1" width="129" height="109" viewBox="0 0 129 109">
<defs>
<path id="font_1_1" d="M.30899049 .31378175H.47599793C.6380005 .31378175 .769989 .42474366 .769989 .5306854 .769989 .6096344 .69898989 .6826172 .56799319 .6826172H.23799134C.21998596 .6826172 .20799256 .6826172 .20799256 .6646118 .20799256 .6516113 .21699524 .6516113 .23799134 .6516113 .24198914 .6516113 .2599945 .6516113 .27598573 .6496124 .29299928 .6476135 .2999878 .6456146 .2999878 .63461306 .2999878 .6296234 .29899598 .6256256 .29599 .614624L.16099549 .07595825C.1519928 .039993287 .1499939 .0309906 .07499695 .0309906 .055999757 .0309906 .04499817 .0309906 .04499817 .0129852299 .04499817 .0019989014 .052993776 0 .05999756 0 .07899475 0 .10398865 .0009918213 .12298584 .0019989014 .15299988 .0029907227 .15499878 .0029907227 .18699646 .0029907227 .21899414 .0029907227 .22099304 .0029907227 .25099183 .0019989014 .2709961 .0009918213 .29699708 0 .31599427 0 .32299806 0 .33599855 0 .33599855 .017990113 .33599855 .0309906 .32598878 .0309906 .30499269 .0309906 .30099488 .0309906 .2829895 .0309906 .2669983 .032989503 .24499512 .035995485 .24398804 .039993287 .24398804 .048980714 .24398804 .051971437 .24398804 .053970338 .24899292 .07196045L.30899049 .31378175M.3809967 .6126251C.3899994 .64860537 .3919983 .6516113 .43399049 .6516113H.5349884C.61299136 .6516113 .6749878 .6276245 .6749878 .55467227 .6749878 .53367617 .6639862 .43972779 .6119995 .39175416 .58999636 .37176515 .5439911 .34179688 .45799256 .34179688H.31298829L.3809967 .6126251Z"/>
<path id="font_2_2" d="M.34799195 .6244507C.34799195 .64852908 .32998658 .66452029 .30699159 .66452029 .27999879 .66452029 .25099183 .638504 .25099183 .60939028 .25099183 .5843353 .2689972 .56933596 .29100038 .56933596 .32299806 .56933596 .34799195 .59936526 .34799195 .6244507M.28799439 .27534486C.2919922 .28533937 .30099488 .3093567 .30499269 .31835938 .30799867 .32736207 .31199647 .33737184 .31199647 .35437013 .31199647 .4104004 .2619934 .44140626 .21199036 .44140626 .10998535 .44140626 .06098938 .3093567 .06098938 .28733827 .06098938 .28234864 .06498718 .27334596 .07899475 .27334596 .09298706 .27334596 .09599304 .27934266 .09899902 .28834535 .1269989 .38539125 .17999268 .4084015 .20799256 .4084015 .22799683 .4084015 .23498535 .395401 .23498535 .37239076 .23498535 .35237123 .22898865 .33737184 .22698975 .33036805L.1749878 .20230103C.16299439 .17329407 .16299439 .17129517 .1499939 .13728333 .13699341 .10726929 .13198853 .09425354 .13198853 .07725525 .13198853 .026229859 .17799378-.009765625 .23298645-.009765625 .33399964-.009765625 .38398744 .12226868 .38398744 .14428711 .38398744 .14628601 .3829956 .15829468 .36499024 .15829468 .35099793 .15829468 .34999085 .1532898 .34399415 .13427735 .32798768 .08325195 .2869873 .023223877 .23599243 .023223877 .21798706 .023223877 .20899964 .035232545 .20899964 .059249879 .20899964 .07925415 .21499634 .09425354 .22799683 .12527466L.28799439 .27534486Z"/>
<path id="font_2_1" d="M.22999573 .01399231C.22999573-.0811615 .17999268-.13627625 .15499878-.15830994 .14498902-.16833496 .14199829-.17033386 .14199829-.17634583 .14199829-.18534851 .15098572-.19433594 .15899658-.19433594 .17298889-.19433594 .2630005-.114227298 .2630005 .008987427 .2630005 .07199097 .23699951 .12098694 .18899536 .12098694 .1499939 .12098694 .1289978 .08999634 .1289978 .06098938 .1289978 .0309906 .1499939 0 .18998719 0 .20498657 0 .21899414 .0039978029 .22999573 .01399231Z"/>
<path id="font_2_3" d="M.46398927 .6244507C.46398927 .65452578 .43998719 .66452029 .42399598 .66452029 .3919983 .66452029 .36698915 .6334839 .36698915 .60939028 .36698915 .58833315 .3829956 .56933596 .4079895 .56933596 .43399049 .56933596 .46398927 .5943451 .46398927 .6244507M.25099183-.04499817C.23199463-.12005615 .17298889-.17111206 .114990238-.17111206 .11199951-.17111206 .083999637-.17010498 .083999637-.16610718 .083999637-.1651001 .08699036-.1631012 .08699036-.16209412 .101989749-.15008545 .10899353-.13407898 .10899353-.11906433 .10899353-.08703613 .08299255-.08003235 .068984989-.08003235 .041992189-.08003235 .011993408-.10205078 .011993408-.13908386 .011993408-.19210816 .07499695-.20410156 .115997318-.20410156 .18299866-.20410156 .30299378-.16610718 .33299256-.04600525L.4229889 .3123169C.4249878 .32232667 .42799378 .33132936 .42799378 .34535218 .42799378 .4013977 .37799073 .44140626 .31399537 .44140626 .20098877 .44140626 .1309967 .30630494 .1309967 .28729249 .1309967 .28129579 .1349945 .2732849 .14898682 .2732849 .16299439 .2732849 .1639862 .2772827 .17098999 .29130555 .19999695 .35635377 .2559967 .4084015 .31098939 .4084015 .34098817 .4084015 .34799195 .38337709 .34799195 .35835267 .34799195 .34535218 .34599305 .33132936 .34498597 .32833863L.25099183-.04499817Z"/>
<path id="font_3_1" d="M.49299623 .22436524H.81599429C.8299866 .22436524 .8549957 .22436524 .8549957 .2503662 .8549957 .2763672 .8299866 .2763672 .81599429 .2763672H.49299623V.60014346C.49299623 .61413577 .49299623 .63912966 .46699525 .63912966 .44099427 .63912966 .44099427 .61413577 .44099427 .60014346V.2763672H.117996219C.10398865 .2763672 .07899475 .2763672 .07899475 .2503662 .07899475 .22436524 .10398865 .22436524 .117996219 .22436524H.44099427V-.10014343C.44099427-.11416626 .44099427-.13917542 .46699525-.13917542 .49299623-.13917542 .49299623-.11416626 .49299623-.10014343V.22436524Z"/>
<path id="font_3_2" d="M.35899354 .6349335C.35899354 .66503909 .35499574 .66503909 .32499696 .66503909 .25898744 .60058596 .15699768 .60058596 .12098694 .60058596V.5615845C.14698792 .5615845 .21299744 .5615845 .272995 .58958438V.08496094C.272995 .051986696 .272995 .038986207 .16999817 .038986207H.1269989V0C.18199158 .0039978029 .2599945 .0039978029 .31599427 .0039978029 .37199403 .0039978029 .44999696 .0039978029 .5049896 0V.038986207H.46199037C.35899354 .038986207 .35899354 .051986696 .35899354 .08496094V.6349335Z"/>
<path id="font_4_1" d="M.79599 .22436524C.81199648 .22436524 .83699038 .22436524 .83699038 .2503662 .83699038 .2763672 .81199648 .2763672 .79599 .2763672H.1659851C.1499939 .2763672 .125 .2763672 .125 .2503662 .125 .22436524 .1499939 .22436524 .1659851 .22436524H.79599Z"/>
<path id="font_1_2" d="M.2869873 .6603241C.29100038 .67433169 .29100038 .67633059 .29100038 .68032839 .29100038 .68933108 .2849884 .69433596 .27598573 .69433596 .2619934 .69433596 .17399597 .6863251 .1539917 .6843262 .14399719 .68333438 .1329956 .6823273 .1329956 .665329 .1329956 .6523285 .14399719 .6523285 .1599884 .6523285 .20698548 .6523285 .20698548 .6453247 .20698548 .6363373 .20698548 .6323395 .20698548 .6303406 .20199585 .6123352L.05899048 .037261964C.054992677 .023254395 .054992677 .021255494 .054992677 .018249512 .054992677 .002243042 .067993167-.0107421879 .085998538-.0107421879 .102996829-.0107421879 .116989139-.00074768069 .12399292 .013244629 .12599182 .018249512 .1349945 .054260255 .13999939 .07527161L.16299439 .16429138C.1659851 .17930603 .17599488 .21731568 .1789856 .23231507L.19099427 .27633668C.19599915 .29934693 .25299073 .41737367 .36099244 .41737367 .4149933 .41737367 .4149933 .36436463 .4149933 .34735108 .4149933 .28633119 .36799623 .16429138 .35699464 .13328552 .34498597 .10227966 .34098817 .0922699 .34098817 .073272708 .34098817 .019256592 .38198854-.0107421879 .4269867-.0107421879 .522995-.0107421879 .56199648 .1322937 .56199648 .14329529 .56199648 .14828491 .5589905 .1552887 .548996 .1552887 .5379944 .1552887 .5369873 .15029907 .5329895 .13728333 .5079956 .052261354 .46598817 .014251709 .42999269 .014251709 .4229889 .014251709 .40499879 .014251709 .40499879 .04626465 .40499879 .0712738 .4149933 .09727478 .4229889 .119277957 .44299317 .17030335 .48298646 .27633668 .48298646 .33235169 .48298646 .42137147 .4169922 .4423828 .3639984 .4423828 .3039856 .4423828 .25299073 .41438294 .21299744 .36535646L.2869873 .6603241Z"/>
</defs>
<path transform="matrix(1.00005,0,0,-1.00005,64.8835,56.181154)" stroke-width=".3985" stroke-linecap="round" stroke-miterlimit="10" stroke-linejoin="miter" fill="none" stroke="#a6a6a6" d="M-34.01608-51.02411V51.02411"/>
<path transform="matrix(1.00005,0,0,-1.00005,64.8835,56.181154)" stroke-width=".3985" stroke-linecap="round" stroke-miterlimit="10" stroke-linejoin="miter" fill="none" stroke="#a6a6a6" d="M0-51.02411V51.02411"/>
<path transform="matrix(1.00005,0,0,-1.00005,64.8835,56.181154)" stroke-width=".3985" stroke-linecap="round" stroke-miterlimit="10" stroke-linejoin="miter" fill="none" stroke="#a6a6a6" d="M34.01608-51.02411V51.02411"/>
<path transform="matrix(1.00005,0,0,-1.00005,64.8835,56.181154)" stroke-width=".3985" stroke-linecap="round" stroke-miterlimit="10" stroke-linejoin="miter" fill="none" stroke="#a6a6a6" d="M-51.02411-34.01608H51.02411"/>
<path transform="matrix(1.00005,0,0,-1.00005,64.8835,56.181154)" stroke-width=".3985" stroke-linecap="round" stroke-miterlimit="10" stroke-linejoin="miter" fill="none" stroke="#a6a6a6" d="M-51.02411 0H51.02411"/>
<path transform="matrix(1.00005,0,0,-1.00005,64.8835,56.181154)" stroke-width=".3985" stroke-linecap="round" stroke-miterlimit="10" stroke-linejoin="miter" fill="none" stroke="#a6a6a6" d="M-51.02411 34.01608H51.02411"/>
<path transform="matrix(1.00005,0,0,-1.00005,64.8835,56.181154)" d="M2.24162 34.01608C2.24162 35.25409 1.238 36.2577 0 36.2577-1.238 36.2577-2.24162 35.25409-2.24162 34.01608-2.24162 32.77806-1.238 31.77446 0 31.77446 1.238 31.77446 2.24162 32.77806 2.24162 34.01608ZM0 34.01608" fill="#ffffff"/>
<path transform="matrix(1.00005,0,0,-1.00005,64.8835,56.181154)" stroke-width=".59776" stroke-linecap="butt" stroke-miterlimit="10" stroke-linejoin="miter" fill="none" stroke="#000000" d="M2.24162 34.01608C2.24162 35.25409 1.238 36.2577 0 36.2577-1.238 36.2577-2.24162 35.25409-2.24162 34.01608-2.24162 32.77806-1.238 31.77446 0 31.77446 1.238 31.77446 2.24162 32.77806 2.24162 34.01608ZM0 34.01608"/>
<path transform="matrix(1.00005,0,0,-1.00005,64.8835,56.181154)" d="M2.24162-34.01608C2.24162-32.77806 1.238-31.77446 0-31.77446-1.238-31.77446-2.24162-32.77806-2.24162-34.01608-2.24162-35.25409-1.238-36.2577 0-36.2577 1.238-36.2577 2.24162-35.25409 2.24162-34.01608ZM0-34.01608" fill="#ffffff"/>
<path transform="matrix(1.00005,0,0,-1.00005,64.8835,56.181154)" stroke-width=".59776" stroke-linecap="butt" stroke-miterlimit="10" stroke-linejoin="miter" fill="none" stroke="#000000" d="M2.24162-34.01608C2.24162-32.77806 1.238-31.77446 0-31.77446-1.238-31.77446-2.24162-32.77806-2.24162-34.01608-2.24162-35.25409-1.238-36.2577 0-36.2577 1.238-36.2577 2.24162-35.25409 2.24162-34.01608ZM0-34.01608"/>
<path transform="matrix(1.00005,0,0,-1.00005,64.8835,56.181154)" d="M36.2577 0C36.2577 1.238 35.25409 2.24162 34.01608 2.24162 32.77806 2.24162 31.77446 1.238 31.77446 0 31.77446-1.238 32.77806-2.24162 34.01608-2.24162 35.25409-2.24162 36.2577-1.238 36.2577 0ZM34.01608 0" fill="#ffffff"/>
<path transform="matrix(1.00005,0,0,-1.00005,64.8835,56.181154)" stroke-width=".59776" stroke-linecap="butt" stroke-miterlimit="10" stroke-linejoin="miter" fill="none" stroke="#000000" d="M36.2577 0C36.2577 1.238 35.25409 2.24162 34.01608 2.24162 32.77806 2.24162 31.77446 1.238 31.77446 0 31.77446-1.238 32.77806-2.24162 34.01608-2.24162 35.25409-2.24162 36.2577-1.238 36.2577 0ZM34.01608 0"/>
<path transform="matrix(1.00005,0,0,-1.00005,64.8835,56.181154)" d="M-31.77446 0C-31.77446 1.238-32.77806 2.24162-34.01608 2.24162-35.25409 2.24162-36.2577 1.238-36.2577 0-36.2577-1.238-35.25409-2.24162-34.01608-2.24162-32.77806-2.24162-31.77446-1.238-31.77446 0ZM-34.01608 0" fill="#ffffff"/>
<path transform="matrix(1.00005,0,0,-1.00005,64.8835,56.181154)" stroke-width=".59776" stroke-linecap="butt" stroke-miterlimit="10" stroke-linejoin="miter" fill="none" stroke="#000000" d="M-31.77446 0C-31.77446 1.238-32.77806 2.24162-34.01608 2.24162-35.25409 2.24162-36.2577 1.238-36.2577 0-36.2577-1.238-35.25409-2.24162-34.01608-2.24162-32.77806-2.24162-31.77446-1.238-31.77446 0ZM-34.01608 0"/>
<path transform="matrix(1.00005,0,0,-1.00005,64.8835,56.181154)" d="M2.24162 0C2.24162 1.238 1.238 2.24162 0 2.24162-1.238 2.24162-2.24162 1.238-2.24162 0-2.24162-1.238-1.238-2.24162 0-2.24162 1.238-2.24162 2.24162-1.238 2.24162 0ZM0 0" fill="#cc0000"/>
<use data-text="P" xlink:href="#font_1_1" transform="matrix(8.966848,0,0,-8.966848,69.10771,15.773136)"/>
<use data-text="i" xlink:href="#font_2_2" transform="matrix(5.9778988,0,0,-5.9778988,74.992008,16.769185)"/>
<use data-text="," xlink:href="#font_2_1" transform="matrix(5.9778988,0,0,-5.9778988,77.652179,16.769185)"/>
<use data-text="j" xlink:href="#font_2_3" transform="matrix(5.9778988,0,0,-5.9778988,79.917789,16.769185)"/>
<use data-text="+" xlink:href="#font_3_1" transform="matrix(5.9778988,0,0,-5.9778988,83.32942,16.769185)"/>
<use data-text="1" xlink:href="#font_3_2" transform="matrix(5.9778988,0,0,-5.9778988,88.91875,16.769185)"/>
<use data-text="P" xlink:href="#font_1_1" transform="matrix(8.966848,0,0,-8.966848,52.818895,101.84543)"/>
<use data-text="i" xlink:href="#font_2_2" transform="matrix(5.9778988,0,0,-5.9778988,58.703187,102.84148)"/>
<use data-text="," xlink:href="#font_2_1" transform="matrix(5.9778988,0,0,-5.9778988,61.363359,102.84148)"/>
<use data-text="j" xlink:href="#font_2_3" transform="matrix(5.9778988,0,0,-5.9778988,63.628969,102.84148)"/>
<use data-text="&#x2212;" xlink:href="#font_4_1" transform="matrix(5.9778988,0,0,-5.9778988,67.0406,102.84148)"/>
<use data-text="1" xlink:href="#font_3_2" transform="matrix(5.9778988,0,0,-5.9778988,72.7979,102.84148)"/>
<use data-text="P" xlink:href="#font_1_1" transform="matrix(8.966848,0,0,-8.966848,104.42047,58.165254)"/>
<use data-text="i" xlink:href="#font_2_2" transform="matrix(5.9778988,0,0,-5.9778988,110.30476,59.1613)"/>
<use data-text="+" xlink:href="#font_3_1" transform="matrix(5.9778988,0,0,-5.9778988,112.9689,59.1613)"/>
<use data-text="1" xlink:href="#font_3_2" transform="matrix(5.9778988,0,0,-5.9778988,118.55823,59.1613)"/>
<use data-text="," xlink:href="#font_2_1" transform="matrix(5.9778988,0,0,-5.9778988,122.21236,59.1613)"/>
<use data-text="j" xlink:href="#font_2_3" transform="matrix(5.9778988,0,0,-5.9778988,124.47798,59.1613)"/>
<use data-text="P" xlink:href="#font_1_1" transform="matrix(8.966848,0,0,-8.966848,1.2163239,58.165254)"/>
<use data-text="i" xlink:href="#font_2_2" transform="matrix(5.9778988,0,0,-5.9778988,7.1006166,59.1613)"/>
<use data-text="&#x2212;" xlink:href="#font_4_1" transform="matrix(5.9778988,0,0,-5.9778988,9.764755,59.1613)"/>
<use data-text="1" xlink:href="#font_3_2" transform="matrix(5.9778988,0,0,-5.9778988,15.521027,59.1613)"/>
<use data-text="," xlink:href="#font_2_1" transform="matrix(5.9778988,0,0,-5.9778988,19.17421,59.1613)"/>
<use data-text="j" xlink:href="#font_2_3" transform="matrix(5.9778988,0,0,-5.9778988,21.439835,59.1613)"/>
<use data-text="P" xlink:href="#font_1_1" transform="matrix(8.966848,0,0,-8.966848,58.658189,48.50977)"/>
<use data-text="i" xlink:href="#font_2_2" transform="matrix(5.9778988,0,0,-5.9778988,64.54248,49.505819)"/>
<use data-text="j" xlink:href="#font_2_3" transform="matrix(5.9778988,0,0,-5.9778988,67.20265,49.505819)"/>
<path transform="matrix(1.00005,0,0,-1.00005,64.8835,56.181154)" stroke-width=".3985" stroke-linecap="butt" stroke-miterlimit="10" stroke-linejoin="miter" fill="none" stroke="#000000" d="M-33.5578 42.52008H-.45827"/>
<path transform="matrix(-1.00005,-0,0,1.00005,31.324025,13.658947)" stroke-width=".31879" stroke-linecap="round" stroke-linejoin="round" fill="none" stroke="#000000" d="M-1.19551 1.59401C-1.09587 .99626 0 .09961 .29886 0 0-.09961-1.09587-.99626-1.19551-1.59401"/>
<path transform="matrix(1.00005,0,0,-1.00005,64.42521,13.658947)" stroke-width=".31879" stroke-linecap="round" stroke-linejoin="round" fill="none" stroke="#000000" d="M-1.19551 1.59401C-1.09587 .99626 0 .09961 .29886 0 0-.09961-1.09587-.99626-1.19551-1.59401"/>
<use data-text="h" xlink:href="#font_1_2" transform="matrix(8.966848,0,0,-8.966848,45.219514,8.146751)"/>
<path transform="matrix(1.00005,0,0,-1.00005,64.8835,56.181154)" stroke-width=".3985" stroke-linecap="butt" stroke-miterlimit="10" stroke-linejoin="miter" fill="none" stroke="#000000" d="M-42.52008 .45827V33.5578"/>
<path transform="matrix(0,1.00005,1.00005,0,22.361294,55.72286)" stroke-width=".31879" stroke-linecap="round" stroke-linejoin="round" fill="none" stroke="#000000" d="M-1.19551 1.59401C-1.09587 .99626 0 .09961 .29886 0 0-.09961-1.09587-.99626-1.19551-1.59401"/>
<path transform="matrix(0,-1.00005,-1.00005,-0,22.361294,22.621678)" stroke-width=".31879" stroke-linecap="round" stroke-linejoin="round" fill="none" stroke="#000000" d="M-1.19551 1.59401C-1.09587 .99626 0 .09961 .29886 0 0-.09961-1.09587-.99626-1.19551-1.59401"/>
<use data-text="h" xlink:href="#font_1_2" transform="matrix(8.966848,0,0,-8.966848,11.538834,42.285459)"/>
</svg>
